<svg width="20" height="20" viewBox="0 0 20 20" fill="none" xmlns="http://www.w3.org/2000/svg">
<g id="Vector" opacity="0.5">
<path fill-rule="evenodd" clip-rule="evenodd" d="M14.5249 4.4866e-07H14.5932C15.477 -7.72485e-06 16.1897 -1.43163e-05 16.7635 0.0545389C17.3552 0.110799 17.8707 0.229964 18.3343 0.514048C18.8037 0.801684 19.1983 1.19632 19.486 1.6657C19.77 2.12929 19.8892 2.64482 19.9455 3.23653C20 3.8103 20 4.52304 20 5.40683V5.47517C20 6.05587 20 6.54048 19.9626 6.9341C19.9235 7.34559 19.8386 7.72907 19.623 8.08081C19.4121 8.42502 19.1227 8.71443 18.7785 8.92536C18.4267 9.1409 18.0433 9.2258 17.6318 9.26493C17.2382 9.30235 16.7535 9.30234 16.1728 9.30233L15.0679 9.30233C14.2321 9.30235 13.5352 9.30238 12.9819 9.22799C12.3979 9.14947 11.8706 8.97676 11.4469 8.55307C11.0232 8.12937 10.8505 7.60212 10.772 7.01812C10.6976 6.46484 10.6976 5.76789 10.6977 4.93209L10.6977 3.82725C10.6977 3.24654 10.6976 2.76185 10.7351 2.36823C10.7742 1.95674 10.8591 1.57325 11.0746 1.22152C11.2856 0.877305 11.575 0.587902 11.9192 0.376969C12.2709 0.161424 12.6544 0.0765295 13.0659 0.0374041C13.4595 -2.22772e-05 13.9442 -1.1939e-05 14.5249 4.4866e-07ZM15.3488 5.81395C14.8694 5.81395 14.6297 5.81395 14.4604 5.69385C14.4007 5.65148 14.3485 5.59933 14.3061 5.5396C14.186 5.37034 14.186 5.13061 14.186 4.65117C14.186 4.17173 14.186 3.93199 14.3061 3.76273C14.3485 3.703 14.4007 3.65085 14.4604 3.60847C14.6297 3.48837 14.8694 3.48837 15.3488 3.48837C15.8283 3.48837 16.068 3.48837 16.2373 3.60847C16.297 3.65085 16.3491 3.703 16.3915 3.76273C16.5116 3.93199 16.5116 4.17171 16.5116 4.65116C16.5116 5.13061 16.5116 5.37034 16.3915 5.5396C16.3491 5.59933 16.297 5.65148 16.2373 5.69385C16.068 5.81395 15.8283 5.81395 15.3488 5.81395Z" fill="white"/>
<path fill-rule="evenodd" clip-rule="evenodd" d="M8.08081 0.376969C7.72907 0.161424 7.34559 0.0765295 6.9341 0.0374041C6.54047 -2.22772e-05 6.05583 -1.1939e-05 5.4751 4.4866e-07H5.40684C4.52307 -7.72483e-06 3.81029 -1.432e-05 3.23653 0.0545389C2.64482 0.110799 2.12929 0.229964 1.6657 0.514048C1.19632 0.801684 0.801684 1.19632 0.514048 1.6657C0.229964 2.12929 0.110799 2.64482 0.0545389 3.23653C-1.43163e-05 3.81029 -7.72485e-06 4.52302 4.48659e-07 5.40679V5.47506C-1.1939e-05 6.05579 -2.22772e-05 6.54047 0.0374041 6.9341C0.0765295 7.34559 0.161424 7.72907 0.376969 8.08081C0.587902 8.42502 0.877305 8.71443 1.22152 8.92536C1.57325 9.1409 1.95674 9.2258 2.36823 9.26493C2.76183 9.30235 3.24643 9.30234 3.82711 9.30233L4.93209 9.30233C5.76787 9.30235 6.46484 9.30238 7.01812 9.22799C7.60212 9.14947 8.12937 8.97676 8.55307 8.55307C8.97676 8.12937 9.14947 7.60212 9.22799 7.01812C9.30238 6.46484 9.30235 5.7679 9.30233 4.93212L9.30233 3.82726C9.30234 3.24658 9.30235 2.76183 9.26493 2.36823C9.2258 1.95674 9.1409 1.57325 8.92536 1.22152C8.71443 0.877305 8.42502 0.587902 8.08081 0.376969ZM3.76273 5.69385C3.93199 5.81395 4.17171 5.81395 4.65116 5.81395C5.13061 5.81395 5.37034 5.81395 5.5396 5.69385C5.59933 5.65148 5.65148 5.59933 5.69385 5.5396C5.81395 5.37034 5.81395 5.13061 5.81395 4.65116C5.81395 4.17171 5.81395 3.93199 5.69385 3.76273C5.65148 3.703 5.59933 3.65085 5.5396 3.60847C5.37034 3.48837 5.13061 3.48837 4.65116 3.48837C4.17171 3.48837 3.93199 3.48837 3.76273 3.60847C3.703 3.65085 3.65085 3.703 3.60847 3.76273C3.48837 3.93199 3.48837 4.17171 3.48837 4.65116C3.48837 5.13061 3.48837 5.37034 3.60847 5.5396C3.65085 5.59933 3.703 5.65148 3.76273 5.69385Z" fill="white"/>
<path fill-rule="evenodd" clip-rule="evenodd" d="M7.01812 10.772C7.60212 10.8505 8.12937 11.0232 8.55307 11.4469C8.97676 11.8706 9.14947 12.3979 9.22799 12.9819C9.30238 13.5352 9.30235 14.2321 9.30233 15.0679L9.30233 16.1728C9.30234 16.7535 9.30235 17.2382 9.26493 17.6318C9.2258 18.0433 9.1409 18.4267 8.92536 18.7785C8.71443 19.1227 8.42502 19.4121 8.08081 19.623C7.72907 19.8386 7.34559 19.9235 6.9341 19.9626C6.54048 20 6.05577 20 5.47507 20H5.40683C4.52304 20 3.8103 20 3.23653 19.9455C2.64482 19.8892 2.12929 19.77 1.6657 19.486C1.19632 19.1983 0.801684 18.8037 0.514048 18.3343C0.229964 17.8707 0.110799 17.3552 0.0545389 16.7635C-1.432e-05 16.1897 -7.72484e-06 15.477 4.48659e-07 14.5932V14.5249C-1.1939e-05 13.9442 -2.22772e-05 13.4595 0.0374041 13.0659C0.0765295 12.6544 0.161424 12.2709 0.376969 11.9192C0.587902 11.575 0.877305 11.2856 1.22152 11.0746C1.57325 10.8591 1.95674 10.7742 2.36823 10.7351C2.76184 10.6976 3.24648 10.6977 3.82717 10.6977L4.93209 10.6977C5.76789 10.6976 6.46484 10.6976 7.01812 10.772ZM4.65116 16.5116C4.17171 16.5116 3.93199 16.5116 3.76273 16.3915C3.703 16.3491 3.65085 16.297 3.60847 16.2373C3.48837 16.068 3.48837 15.8283 3.48837 15.3488C3.48837 14.8694 3.48837 14.6297 3.60847 14.4604C3.65085 14.4007 3.703 14.3485 3.76273 14.3061C3.93199 14.186 4.17171 14.186 4.65115 14.186C5.13059 14.186 5.37034 14.186 5.5396 14.3061C5.59933 14.3485 5.65148 14.4007 5.69385 14.4604C5.81395 14.6297 5.81395 14.8694 5.81395 15.3488C5.81395 15.8283 5.81395 16.068 5.69385 16.2373C5.65148 16.297 5.59933 16.3491 5.5396 16.3915C5.37034 16.5116 5.13061 16.5116 4.65116 16.5116Z" fill="white"/>
<path d="M10.6977 14.6155V14.6512H12.093C12.093 13.9834 12.0939 13.5351 12.1286 13.1933C12.1622 12.8632 12.2216 12.7107 12.289 12.6098C12.3738 12.4828 12.4828 12.3738 12.6098 12.289C12.7107 12.2216 12.8632 12.1622 13.1933 12.1286C13.5351 12.0939 13.9834 12.093 14.6512 12.093H16.5116V10.6977H14.6155C13.9926 10.6977 13.4729 10.6976 13.0521 10.7404C12.6117 10.7853 12.203 10.8827 11.8346 11.1288C11.5553 11.3154 11.3154 11.5553 11.1288 11.8346C10.8827 12.203 10.7853 12.6117 10.7404 13.0521C10.6976 13.4729 10.6977 13.9926 10.6977 14.6155Z" fill="white"/>
<path d="M20 16.5351V16.5116H18.6046C18.6046 16.9546 18.6043 17.2519 18.5886 17.4821C18.5733 17.706 18.5459 17.8151 18.5161 17.8868C18.3981 18.1718 18.1718 18.3981 17.8868 18.5161C17.8151 18.5459 17.706 18.5733 17.4821 18.5886C17.2519 18.6043 16.9546 18.6046 16.5116 18.6046H14.6512V20H16.5351C16.9486 20 17.2937 20 17.5771 19.9807C17.8721 19.9606 18.1507 19.9172 18.4208 19.8053C19.0476 19.5456 19.5456 19.0476 19.8053 18.4208C19.9172 18.1507 19.9606 17.8721 19.9807 17.5771C20 17.2937 20 16.9486 20 16.5351Z" fill="white"/>
<path d="M12.093 19.3023C12.093 19.6876 11.7807 20 11.3953 20C11.01 20 10.6977 19.6876 10.6977 19.3023V16.5116H12.093V19.3023Z" fill="white"/>
<path d="M19.3023 10.6977C18.917 10.6977 18.6046 11.01 18.6046 11.3953V14.6512H20V11.3953C20 11.01 19.6876 10.6977 19.3023 10.6977Z" fill="white"/>
<path d="M14.0761 14.6173C14 14.8011 14 15.0341 14 15.5C14 15.9659 14 16.1989 14.0761 16.3827C14.1776 16.6277 14.3723 16.8224 14.6173 16.9239C14.8011 17 15.0341 17 15.5 17C15.9659 17 16.1989 17 16.3827 16.9239C16.6277 16.8224 16.8224 16.6277 16.9239 16.3827C17 16.1989 17 15.9659 17 15.5C17 15.0341 17 14.8011 16.9239 14.6173C16.8224 14.3723 16.6277 14.1776 16.3827 14.0761C16.1989 14 15.9659 14 15.5 14C15.0341 14 14.8011 14 14.6173 14.0761C14.3723 14.1776 14.1776 14.3723 14.0761 14.6173Z" fill="white"/>
</g>
</svg>
