<svg width="35" height="35" viewBox="0 0 35 35" fill="none" xmlns="http://www.w3.org/2000/svg">
<path id="Vector" fill-rule="evenodd" clip-rule="evenodd" d="M17.5 35C27.165 35 35 27.165 35 17.5C35 7.83502 27.165 0 17.5 0C7.83502 0 0 7.83502 0 17.5C0 20.2994 0.657328 22.9454 1.82606 25.2918C2.13664 25.9154 2.24002 26.6281 2.05996 27.3011L1.01764 31.1966C0.56517 32.8877 2.11227 34.4348 3.80336 33.9824L7.69892 32.94C8.37188 32.76 9.08461 32.8634 9.70817 33.1739C12.0546 34.3427 14.7006 35 17.5 35ZM10.5 19.6875C9.77513 19.6875 9.1875 20.2751 9.1875 21C9.1875 21.7249 9.77513 22.3125 10.5 22.3125H20.125C20.8499 22.3125 21.4375 21.7249 21.4375 21C21.4375 20.2751 20.8499 19.6875 20.125 19.6875H10.5ZM9.1875 14.875C9.1875 14.1501 9.77513 13.5625 10.5 13.5625H24.5C25.2249 13.5625 25.8125 14.1501 25.8125 14.875C25.8125 15.5999 25.2249 16.1875 24.5 16.1875H10.5C9.77513 16.1875 9.1875 15.5999 9.1875 14.875Z" fill="#33CC00"/>
</svg>
