<svg width="34" height="35" viewBox="0 0 34 35" fill="none" xmlns="http://www.w3.org/2000/svg">
<g id="Vector">
<path fill-rule="evenodd" clip-rule="evenodd" d="M17.0003 2.53014C15.3369 2.53014 13.9183 3.58441 13.3926 5.06017C13.158 5.71891 12.4296 6.06418 11.7656 5.83135C11.1017 5.59852 10.7537 4.87575 10.9884 4.21701C11.863 1.76197 14.2226 0 17.0003 0C19.778 0 22.1377 1.76197 23.0123 4.21701C23.2469 4.87575 22.8989 5.59852 22.235 5.83135C21.5711 6.06418 20.8427 5.71891 20.608 5.06017C20.0823 3.58441 18.6638 2.53014 17.0003 2.53014Z" fill="#33CC00"/>
<path d="M20.4 18.976H13.6C13.1306 18.976 12.75 19.3536 12.75 19.8194V23.4653C12.75 23.8102 12.9616 24.1203 13.2843 24.2484L14.4745 24.7208C16.0957 25.3642 17.9043 25.3642 19.5255 24.7208L20.7157 24.2484C21.0384 24.1203 21.25 23.8102 21.25 23.4653V19.8194C21.25 19.3536 20.8694 18.976 20.4 18.976Z" fill="#33CC00"/>
<path d="M10.2183 23.8156L1.70996 21.283C1.76112 26.5364 2.07042 31.3745 3.94046 33.0238C6.18109 35 9.78733 35 16.9998 35C24.2123 35 27.8186 35 30.0592 33.0238C31.9292 31.3745 32.2385 26.5364 32.2897 21.283L23.7817 23.8155C23.6521 25.0515 22.8433 26.129 21.6627 26.5976L20.4725 27.0699C18.2434 27.9547 15.7566 27.9547 13.5275 27.0699L12.3373 26.5976C11.1568 26.129 10.3479 25.0515 10.2183 23.8156Z" fill="#33CC00"/>
<path d="M9.53518 6.32535H24.4648C28.6301 6.32535 30.7127 6.32535 32.1188 7.46051C32.389 7.67869 32.636 7.92376 32.8559 8.19191C34 9.58703 34 11.6534 34 15.7863C34 16.835 34 17.3593 33.7437 17.7683C33.6938 17.848 33.6372 17.9234 33.5746 17.9938C33.2534 18.3549 32.7473 18.5056 31.7349 18.8069L23.8 21.1688V19.8194C23.8 17.9563 22.2778 16.4459 20.4 16.4459H13.6C11.7222 16.4459 10.2 17.9563 10.2 19.8194V21.1688L2.26509 18.8069C1.25273 18.5056 0.746556 18.3549 0.425361 17.9938C0.362794 17.9234 0.306251 17.848 0.256321 17.7683C0 17.3593 0 16.835 0 15.7863C0 11.6534 0 9.58703 1.14407 8.19191C1.36396 7.92377 1.61096 7.67868 1.88121 7.46051C3.28728 6.32535 5.36992 6.32535 9.53518 6.32535Z" fill="#33CC00"/>
</g>
</svg>
