<svg width="1119" height="1579" viewBox="0 0 1119 1579" fill="none" xmlns="http://www.w3.org/2000/svg">
<g filter="url(#filter0_d_565_851)">
<path d="M78 169C78 112.431 78 84.1472 95.5736 66.5736C113.147 49 141.431 49 198 49H921C977.569 49 1005.85 49 1023.43 66.5736C1041 84.1472 1041 112.431 1041 169V1352C1041 1408.57 1041 1436.85 1023.43 1454.43C1005.85 1472 977.569 1472 921 1472H198C141.431 1472 113.147 1472 95.5736 1454.43C78 1436.85 78 1408.57 78 1352V169Z" fill="url(#paint0_linear_565_851)"/>
</g>
<defs>
<filter id="filter0_d_565_851" x="0" y="0" width="1119" height="1579" filterUnits="userSpaceOnUse" color-interpolation-filters="sRGB">
<feFlood flood-opacity="0" result="BackgroundImageFix"/>
<feColorMatrix in="SourceAlpha" type="matrix" values="0 0 0 0 0 0 0 0 0 0 0 0 0 0 0 0 0 0 127 0" result="hardAlpha"/>
<feMorphology radius="10" operator="dilate" in="SourceAlpha" result="effect1_dropShadow_565_851"/>
<feOffset dy="29"/>
<feGaussianBlur stdDeviation="34"/>
<feComposite in2="hardAlpha" operator="out"/>
<feColorMatrix type="matrix" values="0 0 0 0 0 0 0 0 0 0 0 0 0 0 0 0 0 0 0.25 0"/>
<feBlend mode="normal" in2="BackgroundImageFix" result="effect1_dropShadow_565_851"/>
<feBlend mode="normal" in="SourceGraphic" in2="effect1_dropShadow_565_851" result="shape"/>
</filter>
<linearGradient id="paint0_linear_565_851" x1="559.5" y1="49" x2="559.5" y2="1472" gradientUnits="userSpaceOnUse">
<stop stop-color="#33CC00"/>
<stop offset="0.296875" stop-color="#282828"/>
</linearGradient>
</defs>
</svg>
