<svg width="50" height="50" viewBox="0 0 50 50" fill="none" xmlns="http://www.w3.org/2000/svg">
<path id="Icon 1" fill-rule="evenodd" clip-rule="evenodd" d="M0 20C0 10.5719 0 5.85786 2.92893 2.92893C5.85786 0 10.5719 0 20 0H25C34.4281 0 39.1421 0 42.0711 2.92893C43.4853 4.34318 44.2167 6.17363 44.5949 8.75C42.2508 8.74952 39.9065 9.64353 38.118 11.432L37.7999 11.7501L35.0203 14.5297L25.0042 24.5458L25.0042 24.5458C24.3293 25.2202 23.7765 25.7726 23.2899 26.3964C22.7199 27.1273 22.2311 27.9181 21.8324 28.7548C21.492 29.469 21.2451 30.2105 20.9437 31.1158L20.8889 31.2803L19.7011 34.8436L19.0174 36.8949C18.3936 38.7663 18.8807 40.8296 20.2756 42.2245C21.6705 43.6194 23.7338 44.1065 25.6052 43.4827L31.3845 41.5563C32.2897 41.2549 33.0311 41.0081 33.7453 40.6677C34.582 40.269 35.3728 39.7802 36.1036 39.2102C36.7275 38.7236 37.2798 38.1709 37.9543 37.4959L45 30.4502C44.9992 39.5789 44.953 44.1891 42.0711 47.0711C39.1421 50 34.4281 50 25 50H20C10.5719 50 5.85786 50 2.92893 47.0711C0 44.1421 0 39.4281 0 30V20ZM12.5 15.625C11.4645 15.625 10.625 16.4645 10.625 17.5C10.625 18.5355 11.4645 19.375 12.5 19.375H28.75C29.7855 19.375 30.625 18.5355 30.625 17.5C30.625 16.4645 29.7855 15.625 28.75 15.625H12.5ZM12.5 25.625C11.4645 25.625 10.625 26.4645 10.625 27.5C10.625 28.5355 11.4645 29.375 12.5 29.375H18.75C19.7855 29.375 20.625 28.5355 20.625 27.5C20.625 26.4645 19.7855 25.625 18.75 25.625H12.5ZM12.5 35.625C11.4645 35.625 10.625 36.4645 10.625 37.5C10.625 38.5355 11.4645 39.375 12.5 39.375H16.25C17.2855 39.375 18.125 38.5355 18.125 37.5C18.125 36.4645 17.2855 35.625 16.25 35.625H12.5ZM48.4163 14.0837C50.5279 16.1953 50.5279 19.6189 48.4163 21.7304L48.0982 22.0485L48.0981 22.0486C47.9696 22.1771 47.9053 22.2414 47.8199 22.2976C47.6746 22.3931 47.4705 22.4571 47.2967 22.4617C47.1945 22.4643 47.1081 22.4488 46.9354 22.4178C46.6666 22.3696 46.2737 22.2802 45.8048 22.1175C44.8671 21.7922 43.6363 21.1779 42.4792 20.0208C41.3221 18.8637 40.7078 17.6328 40.3825 16.6952C40.2198 16.2263 40.1304 15.8334 40.0822 15.5646C40.0512 15.3919 40.0357 15.3055 40.0383 15.2033C40.0429 15.0294 40.1069 14.8254 40.2024 14.6801C40.2586 14.5947 40.3229 14.5304 40.4514 14.4018L40.4514 14.4018L40.4515 14.4018L40.7695 14.0837C42.8811 11.9721 46.3047 11.9721 48.4163 14.0837ZM35.4251 34.7216C34.6315 35.5152 34.2347 35.912 33.7972 36.2533C33.2811 36.6558 32.7227 37.0009 32.1318 37.2825C31.631 37.5212 31.0986 37.6987 30.034 38.0536L30.0339 38.0536L28.6581 38.5122L26.4705 39.2414L24.4193 39.9251C23.8953 40.0998 23.3176 39.9634 22.9271 39.5729C22.5366 39.1823 22.4002 38.6047 22.5749 38.0807L23.2586 36.0295L23.9878 33.8419L24.4464 32.4661C24.8013 31.4014 24.9788 30.869 25.2175 30.3682C25.4991 29.7773 25.8442 29.2189 26.2467 28.7028C26.588 28.2653 26.9848 27.8685 27.7783 27.0749L27.7784 27.0749L37.6719 17.1814C37.9111 16.9422 38.323 17.0516 38.4339 17.3712C38.8391 18.539 39.5997 20.0582 41.0208 21.4792C42.4418 22.9002 43.961 23.6609 45.1288 24.0661C45.4484 24.1769 45.5578 24.5889 45.3186 24.8281L35.4251 34.7216Z" fill="#33CC00"/>
</svg>
