<svg width="40" height="49" viewBox="0 0 40 49" fill="none" xmlns="http://www.w3.org/2000/svg">
<g id="Icon 2">
<path fill-rule="evenodd" clip-rule="evenodd" d="M5.67757 0.273087C3.65337 0.534277 2.58144 1.01202 1.81796 1.74476C1.05447 2.4775 0.556692 3.50626 0.284544 5.44897C0.00439463 7.44879 0 10.0993 0 13.8996V34.8839C0.971686 34.2321 2.06684 33.7362 3.24746 33.4326C4.56791 33.0931 6.10763 33.0935 8.36408 33.0943L40 33.0943V13.8996C40 10.0993 39.9956 7.44879 39.7155 5.44897C39.4433 3.50626 38.9455 2.4775 38.182 1.74476C37.4186 1.01202 36.3466 0.534277 34.3224 0.273087C32.2387 0.00421768 29.477 0 25.5172 0H14.4828C10.523 0 7.7613 0.00421768 5.67757 0.273087ZM6.89655 11.2521C6.89655 10.1554 7.82286 9.26641 8.96552 9.26641H31.0345C32.1771 9.26641 33.1034 10.1554 33.1034 11.2521C33.1034 12.3487 32.1771 13.2377 31.0345 13.2377H8.96552C7.82286 13.2377 6.89655 12.3487 6.89655 11.2521ZM8.96552 18.5328C7.82286 18.5328 6.89655 19.4218 6.89655 20.5185C6.89655 21.6151 7.82286 22.5041 8.96552 22.5041H22.7586C23.9013 22.5041 24.8276 21.6151 24.8276 20.5185C24.8276 19.4218 23.9013 18.5328 22.7586 18.5328H8.96552Z" fill="#33CC00"/>
<path d="M11.7241 37.0656H8.68352C5.98488 37.0656 5.04143 37.0827 4.31844 37.2686C2.33411 37.7789 0.75221 39.1945 0.0738118 41.0346C0.115744 41.9712 0.181485 42.795 0.284544 43.5306C0.556692 45.4733 1.05447 46.5021 1.81796 47.2348C2.58144 47.9676 3.65336 48.4453 5.67757 48.7065C7.7613 48.9754 10.523 48.9796 14.4828 48.9796H25.5172C29.477 48.9796 32.2387 48.9754 34.3224 48.7065C36.3466 48.4453 37.4186 47.9676 38.182 47.2348C38.9455 46.5021 39.4433 45.4733 39.7155 43.5306C39.944 41.8991 39.989 39.8344 39.9979 37.0656H22.7586V44.4288C22.7586 45.1584 22.7586 45.5232 22.497 45.6706C22.2353 45.8181 21.8774 45.6549 21.1617 45.3286L17.7349 43.7664C17.4927 43.656 17.3716 43.6008 17.2414 43.6008C17.1111 43.6008 16.9901 43.656 16.7479 43.7664L13.3211 45.3286C12.6053 45.6549 12.2475 45.8181 11.9858 45.6706C11.7241 45.5232 11.7241 45.1584 11.7241 44.4288V37.0656Z" fill="#33CC00"/>
</g>
</svg>
