<svg width="23" height="23" viewBox="0 0 23 23" fill="none" xmlns="http://www.w3.org/2000/svg">
<g id="Vector" opacity="0.7">
<path d="M0.0516402 0.615097C0.217947 0.135765 0.73623 -0.116195 1.20926 0.0523284L1.57411 0.182309C2.32042 0.448163 2.95428 0.673958 3.45312 0.921986C3.98651 1.18719 4.4439 1.51389 4.78791 2.02401C5.12925 2.53017 5.27017 3.08549 5.33521 3.69438C5.36433 3.96694 5.37969 4.26862 5.38779 4.60022H18.2655C20.3051 4.60022 22.1412 4.60022 22.6786 5.3081C23.216 6.01597 23.0059 7.08258 22.5857 9.21579L21.9808 12.1901C21.5993 14.0655 21.4086 15.0032 20.7407 15.5547C20.0729 16.1062 19.128 16.1062 17.2384 16.1062H10.8192C7.44318 16.1062 5.75517 16.1062 4.70638 14.9852C3.65759 13.8643 3.58104 12.6735 3.58104 9.06521L3.58104 5.87387C3.58104 4.96622 3.57981 4.35876 3.52999 3.89239C3.48238 3.44668 3.398 3.22414 3.28874 3.06212C3.18215 2.90405 3.02034 2.75633 2.65328 2.57382C2.26247 2.37951 1.73135 2.18871 0.923205 1.90079L0.607007 1.78814C0.13398 1.61962 -0.114667 1.09443 0.0516402 0.615097Z" fill="#33CC00"/>
<path d="M6.60758 19.32C7.6104 19.32 8.42335 20.1438 8.42335 21.1599C8.42335 22.1761 7.6104 22.9999 6.60758 22.9999C5.60476 22.9999 4.79181 22.1761 4.79181 21.1599C4.79181 20.1438 5.60476 19.32 6.60758 19.32Z" fill="#33CC00"/>
<path d="M17.5022 19.3201C18.505 19.3201 19.318 20.1438 19.318 21.16C19.318 22.1762 18.505 23 17.5022 23C16.4994 23 15.6864 22.1762 15.6864 21.16C15.6864 20.1438 16.4994 19.3201 17.5022 19.3201Z" fill="#33CC00"/>
</g>
</svg>
