<svg width="22" height="21" viewBox="0 0 22 21" fill="none" xmlns="http://www.w3.org/2000/svg">
<path id="Vector" opacity="0.5" fill-rule="evenodd" clip-rule="evenodd" d="M13.75 0H15.75C17.6356 0 18.5784 0 19.1642 0.585786C19.75 1.17157 19.75 2.11438 19.75 4V19.25H20.75C21.1642 19.25 21.5 19.5858 21.5 20C21.5 20.4142 21.1642 20.75 20.75 20.75H0.75C0.335786 20.75 0 20.4142 0 20C0 19.5858 0.335786 19.25 0.75 19.25H1.75V7C1.75 5.11438 1.75 4.17157 2.33579 3.58579C2.92157 3 3.86438 3 5.75 3H9.75C11.6356 3 12.5784 3 13.1642 3.58579C13.75 4.17157 13.75 5.11438 13.75 7V19.25H15.25V7L15.25 6.91051C15.2501 6.04488 15.2502 5.25121 15.1634 4.60559C15.0678 3.89462 14.8429 3.14317 14.2249 2.52513C13.6068 1.90708 12.8554 1.68219 12.1444 1.5866C11.5079 1.50102 10.7274 1.49991 9.87601 1.49999C9.9603 1.11275 10.101 0.820586 10.3358 0.585786C10.9216 0 11.8644 0 13.75 0ZM4 6C4 5.58579 4.33579 5.25 4.75 5.25H10.75C11.1642 5.25 11.5 5.58579 11.5 6C11.5 6.41421 11.1642 6.75 10.75 6.75H4.75C4.33579 6.75 4 6.41421 4 6ZM4 9C4 8.58579 4.33579 8.25 4.75 8.25H10.75C11.1642 8.25 11.5 8.58579 11.5 9C11.5 9.41421 11.1642 9.75 10.75 9.75H4.75C4.33579 9.75 4 9.41421 4 9ZM4 12C4 11.5858 4.33579 11.25 4.75 11.25H10.75C11.1642 11.25 11.5 11.5858 11.5 12C11.5 12.4142 11.1642 12.75 10.75 12.75H4.75C4.33579 12.75 4 12.4142 4 12ZM7.75 16.25C8.16421 16.25 8.5 16.5858 8.5 17V19.25H7V17C7 16.5858 7.33579 16.25 7.75 16.25Z" fill="white"/>
</svg>
