<svg width="33" height="37" viewBox="0 0 33 37" fill="none" xmlns="http://www.w3.org/2000/svg">
<path id="Vector" fill-rule="evenodd" clip-rule="evenodd" d="M0 15.5708C0 9.65528 0 6.69752 0.692112 5.70246C1.38422 4.7074 4.14026 3.75542 9.65234 1.85147L10.7025 1.48873C13.5758 0.496242 15.0125 0 16.5 0C17.9875 0 19.4242 0.496242 22.2975 1.48873L23.3477 1.85147C28.8597 3.75542 31.6158 4.7074 32.3079 5.70246C33 6.69752 33 9.65528 33 15.5708V18.484C33 28.9145 25.2286 33.9762 20.3526 36.1255C19.03 36.7085 18.3686 37 16.5 37C14.6314 37 13.97 36.7085 12.6474 36.1255C7.77143 33.9762 0 28.9145 0 18.484V15.5708ZM20.1667 12.95C20.1667 14.9935 18.525 16.65 16.5 16.65C14.475 16.65 12.8333 14.9935 12.8333 12.95C12.8333 10.9065 14.475 9.25 16.5 9.25C18.525 9.25 20.1667 10.9065 20.1667 12.95ZM16.5 27.75C23.8333 27.75 23.8333 26.0935 23.8333 24.05C23.8333 22.0065 20.5501 20.35 16.5 20.35C12.4499 20.35 9.16667 22.0065 9.16667 24.05C9.16667 26.0935 9.16667 27.75 16.5 27.75Z" fill="#33CC00"/>
</svg>
