<svg width="34" height="35" viewBox="0 0 34 35" fill="none" xmlns="http://www.w3.org/2000/svg">
<g id="Vector">
<path fill-rule="evenodd" clip-rule="evenodd" d="M0 17.104V10.2624C0 5.42467 0 3.00579 1.49375 1.5029C2.98751 0 5.39167 0 10.2 0H23.8C28.6083 0 31.0125 0 32.5062 1.5029C34 3.00579 34 5.42467 34 10.2624V17.104C34 21.9418 34 24.3607 32.5062 25.8636C31.4074 26.9691 29.8159 27.2614 27.1371 27.3387C27.1308 26.0802 26.6963 24.8234 25.8334 23.8046C25.7846 23.747 25.7551 23.6754 25.7491 23.5999C25.5359 20.912 23.4145 18.7777 20.743 18.5632C20.668 18.5571 20.5968 18.5275 20.5395 18.4784C18.4997 16.7294 15.4996 16.7294 13.4598 18.4784C13.4026 18.5275 13.3314 18.5571 13.2564 18.5632C10.5849 18.7777 8.46345 20.912 8.25026 23.5999C8.24427 23.6754 8.21478 23.747 8.16598 23.8046C7.30311 24.8233 6.86856 26.0801 6.86233 27.3387C4.18388 27.2614 2.59252 26.969 1.49375 25.8636C0 24.3607 0 21.9418 0 17.104ZM10.625 6.84161C10.625 6.13314 11.1958 5.55881 11.9 5.55881H22.1C22.8042 5.55881 23.375 6.13314 23.375 6.84161C23.375 7.55008 22.8042 8.12441 22.1 8.12441H11.9C11.1958 8.12441 10.625 7.55008 10.625 6.84161ZM8.5 11.5452C7.79584 11.5452 7.225 12.1196 7.225 12.828C7.225 13.5365 7.79584 14.1108 8.5 14.1108H25.5C26.2042 14.1108 26.775 13.5365 26.775 12.828C26.775 12.1196 26.2042 11.5452 25.5 11.5452H8.5Z" fill="#33CC00"/>
<path fill-rule="evenodd" clip-rule="evenodd" d="M18.8856 20.4311C17.7989 19.4993 16.2005 19.4993 15.1138 20.4311C14.6481 20.8304 14.0691 21.0717 13.4592 21.1206C12.0359 21.2349 10.9058 22.372 10.7922 23.804C10.7435 24.4176 10.5037 25.0002 10.1068 25.4687C9.18073 26.5621 9.18073 28.1702 10.1068 29.2636C10.5037 29.7321 10.7435 30.3146 10.7922 30.9283C10.9058 32.3603 12.0359 33.4974 13.4592 33.6116C14.0691 33.6606 14.6481 33.9019 15.1138 34.3012C16.2005 35.2329 17.7989 35.2329 18.8856 34.3012C19.3513 33.9019 19.9303 33.6606 20.5402 33.6116C21.9634 33.4974 23.0936 32.3603 23.2072 30.9283C23.2559 30.3146 23.4957 29.7321 23.8926 29.2636C24.8186 28.1702 24.8186 26.5621 23.8926 25.4687C23.4957 25.0002 23.2559 24.4176 23.2072 23.804C23.0936 22.372 21.9634 21.2349 20.5402 21.1206C19.9303 21.0717 19.3513 20.8304 18.8856 20.4311ZM20.42 26.5938C20.9347 26.1104 20.9626 25.2987 20.4821 24.7808C20.0016 24.2628 19.1948 24.2348 18.68 24.7183L15.9071 27.3221L15.32 26.7707C14.8052 26.2873 13.9984 26.3153 13.5179 26.8333C13.0374 27.3512 13.0653 28.1629 13.58 28.6463L15.0372 30.0147C15.5271 30.4747 16.2872 30.4747 16.7771 30.0147L20.42 26.5938Z" fill="#33CC00"/>
</g>
</svg>
