<svg width="137" height="136" viewBox="0 0 137 136" fill="none" xmlns="http://www.w3.org/2000/svg">
<path id="Vector" fill-rule="evenodd" clip-rule="evenodd" d="M68.5 136C36.2088 136 20.0632 136 10.0316 126.042C2.69852e-06 116.083 0 100.056 0 68C0 35.9445 2.69852e-06 19.9167 10.0316 9.95837C20.0632 0 36.2088 0 68.5 0C100.791 0 116.937 0 126.968 9.95837C137 19.9167 137 35.9445 137 68C137 100.056 137 116.083 126.968 126.042C116.937 136 100.791 136 68.5 136ZM79.9167 37.7778C79.9167 31.5185 74.8053 26.4444 68.5 26.4444C62.1948 26.4444 57.0833 31.5185 57.0833 37.7778V56.6667H38.0556C31.7503 56.6667 26.6389 61.7408 26.6389 68C26.6389 74.2592 31.7503 79.3333 38.0556 79.3333H57.0833V98.2222C57.0833 104.481 62.1948 109.556 68.5 109.556C74.8053 109.556 79.9167 104.481 79.9167 98.2222V79.3333H98.9445C105.25 79.3333 110.361 74.2592 110.361 68C110.361 61.7408 105.25 56.6667 98.9445 56.6667H79.9167V37.7778Z" fill="#33CC00"/>
</svg>
