<svg width="29" height="23" viewBox="0 0 29 23" fill="none" xmlns="http://www.w3.org/2000/svg">
<path id="Vector" opacity="0.7" fill-rule="evenodd" clip-rule="evenodd" d="M11.6 0H17.4C22.8683 0 25.6024 0 27.3012 1.68414C29 3.36827 29 6.07885 29 11.5C29 16.9212 29 19.6317 27.3012 21.3159C25.6024 23 22.8683 23 17.4 23H11.6C6.13171 23 3.39756 23 1.69878 21.3159C0 19.6317 0 16.9212 0 11.5C0 6.07885 0 3.36827 1.69878 1.68414C3.39756 0 6.13171 0 11.6 0ZM16.3125 7.1875C16.3125 6.59207 16.7994 6.10938 17.4 6.10938H24.65C25.2506 6.10938 25.7375 6.59207 25.7375 7.1875C25.7375 7.78293 25.2506 8.26562 24.65 8.26562H17.4C16.7994 8.26562 16.3125 7.78293 16.3125 7.1875ZM17.7625 11.5C17.7625 10.9046 18.2494 10.4219 18.85 10.4219H24.65C25.2506 10.4219 25.7375 10.9046 25.7375 11.5C25.7375 12.0954 25.2506 12.5781 24.65 12.5781H18.85C18.2494 12.5781 17.7625 12.0954 17.7625 11.5ZM19.2125 15.8125C19.2125 15.2171 19.6994 14.7344 20.3 14.7344H24.65C25.2506 14.7344 25.7375 15.2171 25.7375 15.8125C25.7375 16.4079 25.2506 16.8906 24.65 16.8906H20.3C19.6994 16.8906 19.2125 16.4079 19.2125 15.8125ZM13.05 7.1875C13.05 8.77532 11.7516 10.0625 10.15 10.0625C8.54837 10.0625 7.25 8.77532 7.25 7.1875C7.25 5.59968 8.54837 4.3125 10.15 4.3125C11.7516 4.3125 13.05 5.59968 13.05 7.1875ZM10.15 18.6875C15.95 18.6875 15.95 17.4003 15.95 15.8125C15.95 14.2247 13.3533 12.9375 10.15 12.9375C6.94675 12.9375 4.35 14.2247 4.35 15.8125C4.35 17.4003 4.35 18.6875 10.15 18.6875Z" fill="#33CC00"/>
</svg>
