<svg width="29" height="37" viewBox="0 0 29 37" fill="none" xmlns="http://www.w3.org/2000/svg">
<g id="Vector">
<path d="M29 29.6C29 33.6869 22.5081 37 14.5 37C6.49187 37 0 33.6869 0 29.6V22.1518C0.910263 23.2926 2.2021 24.2403 3.63902 24.9736C6.48882 26.428 10.3307 27.2875 14.5 27.2875C18.6693 27.2875 22.5112 26.428 25.361 24.9736C26.7979 24.2403 28.0897 23.2926 29 22.1518V29.6Z" fill="#33CC00"/>
<path d="M14.5 16.1875C18.6693 16.1875 22.5112 15.328 25.361 13.8736C26.7979 13.1403 28.0897 12.1926 29 11.0518V18.5C29 19.425 25.7634 21.4435 24.1451 22.4916C21.747 23.7155 18.3388 24.5125 14.5 24.5125C10.6612 24.5125 7.25305 23.7155 4.85488 22.4916C2.71875 21.4014 0 19.425 0 18.5V11.0518C0.910263 12.1926 2.2021 13.1403 3.63902 13.8736C6.48882 15.328 10.3307 16.1875 14.5 16.1875Z" fill="#33CC00"/>
<path d="M24.1451 11.3916C21.747 12.6155 18.3388 13.4125 14.5 13.4125C10.6612 13.4125 7.25305 12.6155 4.85488 11.3916C3.88405 11.0034 1.65161 9.73488 0.190664 7.67964C0.0635279 7.50078 0.00729684 7.28133 0.0327421 7.06338C0.0731227 6.71749 0.144247 6.27537 0.246109 6.03518C1.50103 2.60025 7.40551 0 14.5 0C21.5945 0 27.499 2.60025 28.7539 6.03518C28.8558 6.27537 28.9269 6.71749 28.9673 7.06338C28.9927 7.28133 28.9365 7.50078 28.8093 7.67964C27.3484 9.73488 25.116 11.0034 24.1451 11.3916Z" fill="#33CC00"/>
</g>
</svg>
