<svg width="33" height="49" viewBox="0 0 33 49" fill="none" xmlns="http://www.w3.org/2000/svg">
<path id="Vector" d="M1.67797 0C2.60468 0 3.35593 0.765281 3.35593 1.7093V5.92558L7.20557 5.14128C10.8983 4.38894 14.7261 4.74694 18.2226 6.17166L18.6782 6.3573C22.1709 7.7805 26.0151 8.04627 29.6646 7.11685C31.3588 6.68539 33 7.9907 33 9.76966V26.5596C33 28.028 32.019 29.308 30.6205 29.6641L30.1407 29.7863C26.1817 30.7945 22.0115 30.5062 18.2226 28.9624C14.7261 27.5376 10.8983 27.1796 7.20557 27.932L3.35593 28.7163V47.2907C3.35593 48.2347 2.60468 49 1.67797 49C0.751251 49 0 48.2347 0 47.2907V1.7093C0 0.765281 0.751251 0 1.67797 0Z" fill="#33CC00"/>
</svg>
