<svg width="1980" height="2394" viewBox="0 0 1980 2394" fill="none" xmlns="http://www.w3.org/2000/svg">
<path d="M2392.9 0.00158691C2670.37 277.399 2859.32 630.825 2935.88 1015.59C3012.43 1400.35 2973.14 1799.16 2822.98 2161.6C2672.81 2524.04 2418.52 2833.82 2092.25 3051.77C1765.98 3269.72 1382.4 3386.05 989.999 3386.05C597.601 3386.05 214.014 3269.72 -112.253 3051.77C-438.52 2833.82 -692.814 2524.04 -842.978 2161.6C-993.142 1799.16 -1032.43 1400.35 -955.878 1015.58C-879.324 630.823 -690.366 277.397 -412.898 0L503.572 916.241C772.238 1184.84 1207.76 1184.84 1476.43 916.242L2392.9 0.00158691Z" fill="url(#paint0_radial_652_1567)"/>
<defs>
<radialGradient id="paint0_radial_652_1567" cx="0" cy="0" r="1" gradientUnits="userSpaceOnUse" gradientTransform="translate(990 1121) rotate(90) scale(2265.05 2265.62)">
<stop offset="0.1773" stop-color="#33CC00"/>
<stop offset="0.414611" stop-color="white" stop-opacity="0"/>
</radialGradient>
</defs>
</svg>
