<svg width="68" height="74" viewBox="0 0 68 74" fill="none" xmlns="http://www.w3.org/2000/svg">
<g id="Group 824">
<path id="Vector" d="M49.1313 16.0738C49.1313 24.9511 41.799 32.1476 32.7542 32.1476C23.7094 32.1476 16.3771 24.9511 16.3771 16.0738C16.3771 7.19649 23.7094 0 32.7542 0C41.799 0 49.1313 7.19649 49.1313 16.0738Z" fill="#33CC00"/>
<path id="Subtract" opacity="0.7" d="M42.4699 71.8604C39.5266 72.0706 36.1962 72.1806 32.4279 72.1806C0 72.1806 0 64.0337 0 53.9839C0 43.9341 14.5185 35.7871 32.4279 35.7871C44.1044 35.7871 54.3394 39.2501 60.0493 44.4457C57.9568 43.8746 55.0207 43.8746 50.6686 43.8746C43.9807 43.8746 40.6367 43.8746 38.559 45.9472C36.4814 48.0199 36.4814 51.3558 36.4814 58.0276C36.4814 64.6994 36.4814 68.0353 38.559 70.108C39.5218 71.0684 40.7565 71.5838 42.4699 71.8604Z" fill="#33CC00"/>
<path id="Vector_2" fill-rule="evenodd" clip-rule="evenodd" d="M50.9509 73.9992C43.2307 73.9992 39.3706 73.9992 36.9722 71.6452C34.5739 69.2913 34.5739 65.5026 34.5739 57.9254C34.5739 50.3481 34.5739 46.5595 36.9722 44.2055C39.3706 41.8516 43.2307 41.8516 50.9509 41.8516C58.6712 41.8516 62.5313 41.8516 64.9296 44.2055C67.328 46.5595 67.328 50.3481 67.328 57.9254C67.328 65.5026 67.328 69.2913 64.9296 71.6452C62.5313 73.9992 58.6712 73.9992 50.9509 73.9992ZM53.6804 50.7815C53.6804 49.3019 52.4584 48.1025 50.9509 48.1025C49.4435 48.1025 48.2214 49.3019 48.2214 50.7815V55.2464H43.6722C42.1648 55.2464 40.9427 56.4458 40.9427 57.9254C40.9427 59.4049 42.1648 60.6043 43.6722 60.6043H48.2214V65.0693C48.2214 66.5488 49.4435 67.7482 50.9509 67.7482C52.4584 67.7482 53.6804 66.5488 53.6804 65.0693V60.6043H58.2296C59.7371 60.6043 60.9592 59.4049 60.9592 57.9254C60.9592 56.4458 59.7371 55.2464 58.2296 55.2464H53.6804V50.7815Z" fill="#33CC00"/>
</g>
</svg>
