<svg width="47" height="41" viewBox="0 0 47 41" fill="none" xmlns="http://www.w3.org/2000/svg">
<path id="Subtract" opacity="0.4" fill-rule="evenodd" clip-rule="evenodd" d="M0 41H13.8193C16.8861 41 18.4196 41 19.8622 40.5542C21.3048 40.1084 22.5709 39.2432 25.103 37.5129L25.1031 37.5129L37.9174 28.7564C43.3976 25.0116 46.1377 23.1392 46.1377 20.5C46.1377 17.8608 43.3976 15.9884 37.9174 12.2436L25.1031 3.48711C22.5709 1.7568 21.3049 0.891653 19.8622 0.445826C18.4196 0 16.8861 0 13.8193 0H0L17.9174 12.2436C23.3976 15.9884 26.1377 17.8608 26.1377 20.5C26.1377 23.1392 23.3976 25.0116 17.9174 28.7564L0 41Z" fill="#33CC00"/>
</svg>
