<svg width="38" height="38" viewBox="0 0 38 38" fill="none" xmlns="http://www.w3.org/2000/svg">
<path id="Vector" fill-rule="evenodd" clip-rule="evenodd" d="M38 11.9575C38 18.5615 32.6245 23.9151 25.9934 23.9151C24.7835 23.9151 22.0285 23.637 20.6882 22.5246L19.0128 24.1932C18.0278 25.1742 18.2938 25.463 18.7319 25.9388C18.9148 26.1373 19.1276 26.3684 19.292 26.6959C19.292 26.6959 20.6881 28.6425 19.292 30.589C18.4543 31.7014 16.1089 33.2586 13.4283 30.589L12.8699 31.1452C12.8699 31.1452 14.5452 33.0918 13.1491 35.0383C12.3114 36.1507 10.0777 37.263 8.12309 35.3164L6.16853 37.263C4.82826 38.5978 3.1902 37.8192 2.53871 37.263L0.863371 35.5945C-0.700277 34.0372 0.211851 32.3502 0.863371 31.7014L15.383 17.2411C15.383 17.2411 13.9868 15.0164 13.9868 11.9575C13.9868 5.35357 19.3624 0 25.9934 0C32.6245 0 38 5.35357 38 11.9575ZM25.9938 16.1289C28.307 16.1289 30.1822 14.2614 30.1822 11.9577C30.1822 9.654 28.307 7.78648 25.9938 7.78648C23.6807 7.78648 21.8055 9.654 21.8055 11.9577C21.8055 14.2614 23.6807 16.1289 25.9938 16.1289Z" fill="#33CC00"/>
</svg>
