<svg width="189" height="37" viewBox="0 0 189 37" fill="none" xmlns="http://www.w3.org/2000/svg">
<path d="M0 18.8312C0 8.4689 8.75799 1.77539 21.1831 1.77539C32.2782 1.77539 40.4406 7.41495 41.4025 14.9349H34.9382C34.1586 11.0838 29.1146 6.95657 21.1831 6.95657C12.1959 6.95657 6.37403 11.9085 6.37403 18.8312C6.37403 25.754 12.1976 30.798 21.1831 30.798C29.1146 30.798 34.1586 26.6256 34.9382 22.7293H41.4025C40.4857 30.3396 32.2782 36.026 21.1831 36.026C8.75799 36.0243 0 29.2387 0 18.8312Z" fill="#282828"/>
<path d="M51.2318 21.6109C51.2318 12.8078 58.5226 7.12305 69.8469 7.12305C79.2925 7.12305 86.3992 11.3406 87.7744 17.7597H81.5844C80.3916 14.2298 75.7608 11.9361 69.8469 11.9361C62.1897 11.9361 57.2378 15.7421 57.2378 21.6109C57.2378 27.4796 62.1897 31.2388 69.8469 31.2388C75.7608 31.2388 80.3916 28.9468 81.5844 25.4152H87.7744C86.3992 31.8795 79.2925 36.0519 69.8469 36.0519C58.5226 36.0519 51.2318 30.3671 51.2318 21.6092V21.6109Z" fill="#282828"/>
<path d="M108.9 12.4572C104.224 12.4572 99.3643 13.5581 92.8983 15.2544L91.9815 9.61488C98.2635 7.96365 104.361 7.09375 109.772 7.09375C120.959 7.09375 125.727 10.8077 125.727 19.656V35.1075H119.355V31.8068C114.311 34.512 108.352 36.0712 102.665 36.0712C94.3203 36.0712 89.7816 32.8156 89.7816 26.9468C89.7816 20.7117 95.2371 17.411 104.957 17.411C109.359 17.411 114.311 18.1437 119.355 19.4737V18.7861C119.355 13.7421 115.733 12.459 108.9 12.459V12.4572ZM104.177 31.6227C108.624 31.6227 113.852 30.1555 119.353 27.5424V23.9656C113.21 22.4532 110.091 21.948 105.139 21.948C99.1785 21.948 96.4282 23.186 96.4282 26.5336C96.4282 29.8812 99.0865 31.6227 104.176 31.6227H104.177Z" fill="#282828"/>
<path d="M133.221 26.6257V12.5962H126.251V8.01061H133.221V1.86578L139.227 0.0322266V8.01061H152.386V12.5962H139.227V24.7001C139.227 29.7441 141.336 30.9821 145.738 30.9821C147.938 30.9821 149.36 30.7529 152.386 30.1574V35.1093C149.773 35.6129 147.16 36.0261 144.5 36.0261C137.209 36.0261 133.221 33.8713 133.221 26.6274V26.6257Z" fill="#282828"/>
<path d="M152.138 21.5816C152.138 12.5041 159.427 7.09375 170.706 7.09375C181.985 7.09375 189 12.6882 189 23.7832H158.694C159.611 28.5981 164.013 31.1643 171.211 31.1643C177.125 31.1643 181.115 29.3308 182.306 26.2124H188.588C186.937 32.3555 180.931 36.0243 171.029 36.0243C159.292 36.0243 152.14 30.6608 152.14 21.5816H152.138ZM182.444 19.0605C181.343 14.1085 177.309 11.9086 170.751 11.9086C164.193 11.9086 159.885 14.2005 158.785 19.0605H182.442H182.444Z" fill="#282828"/>
<path d="M43.3802 12.0752L48.1655 16.7563C48.9746 17.5481 49.4312 18.6333 49.4312 19.7653V35.1057H43.3784V12.0752H43.3802Z" fill="#282828"/>
<path d="M41.1213 2.79796C41.9304 1.98883 43.0555 1.68498 44.1008 1.88639C44.7276 2.00793 45.3266 2.31179 45.8128 2.79796C47.1081 4.09325 47.1081 6.19419 45.8128 7.48949L43.467 9.83526L41.1213 7.48949C39.826 6.19419 39.826 4.09325 41.1213 2.79796Z" fill="#33CC00"/>
<path d="M44.5609 10.9293L46.9066 13.275C48.2019 14.5703 50.3029 14.5703 51.5982 13.275L59.2102 5.663C60.5055 4.36771 60.5055 2.26676 59.2102 0.97147C57.9149 -0.323823 55.8139 -0.323823 54.5187 0.97147L51.2318 4.25832L44.5609 10.9293Z" fill="#33CC00"/>
</svg>
