<svg width="215" height="41" viewBox="0 0 215 41" fill="none" xmlns="http://www.w3.org/2000/svg">
<path d="M0 21.404C0 9.6257 9.9628 2.01758 24.0972 2.01758C36.7186 2.01758 46.0039 8.42774 47.0981 16.9753H39.7445C38.8577 12.5979 33.1198 7.90672 24.0972 7.90672C13.8736 7.90672 7.25088 13.5354 7.25088 21.404C7.25088 29.2726 13.8756 35.0059 24.0972 35.0059C33.1198 35.0059 38.8577 30.2634 39.7445 25.8347H47.0981C46.0552 34.4848 36.7186 40.9483 24.0972 40.9483C9.9628 40.9463 0 33.2336 0 21.404Z" fill="white"/>
<path d="M58.2796 24.5642C58.2796 14.5582 66.5734 8.09668 79.4555 8.09668C90.2004 8.09668 98.2848 12.8905 99.8492 20.1868H92.8077C91.4507 16.1745 86.1829 13.5674 79.4555 13.5674C70.7449 13.5674 65.1117 17.8935 65.1117 24.5642C65.1117 31.2349 70.7449 35.5076 79.4555 35.5076C86.1829 35.5076 91.4507 32.9025 92.8077 28.8883H99.8492C98.2848 36.2359 90.2004 40.9784 79.4555 40.9784C66.5734 40.9784 58.2796 34.5169 58.2796 24.5622V24.5642Z" fill="white"/>
<path d="M123.881 14.1598C118.562 14.1598 113.034 15.4111 105.678 17.3393L104.635 10.9291C111.781 9.05224 118.718 8.06348 124.873 8.06348C137.599 8.06348 143.023 12.2849 143.023 22.3423V39.9051H135.774V36.1533C130.036 39.2282 123.257 41.0004 116.788 41.0004C107.296 41.0004 102.132 37.3 102.132 30.6293C102.132 23.5422 108.338 19.7904 119.396 19.7904C124.403 19.7904 130.036 20.6233 135.774 22.1351V21.3535C135.774 15.6203 131.653 14.1618 123.881 14.1618V14.1598ZM118.509 35.9441C123.567 35.9441 129.514 34.2765 135.772 31.3063V27.2407C128.784 25.5217 125.236 24.9474 119.603 24.9474C112.822 24.9474 109.693 26.3546 109.693 30.1596C109.693 33.9647 112.717 35.9441 118.507 35.9441H118.509Z" fill="white"/>
<path d="M151.548 30.2634V14.3169H143.619V9.1047H151.548V2.12023L158.38 0.0361328V9.1047H173.35V14.3169H158.38V28.0747C158.38 33.8079 160.779 35.2151 165.787 35.2151C168.289 35.2151 169.907 34.9546 173.35 34.2776V39.9063C170.377 40.4786 167.404 40.9483 164.378 40.9483C156.084 40.9483 151.548 38.4991 151.548 30.2654V30.2634Z" fill="white"/>
<path d="M173.067 24.531C173.067 14.2131 181.359 8.06348 194.19 8.06348C207.02 8.06348 215 14.4223 215 27.0335H180.525C181.568 32.5062 186.575 35.4231 194.764 35.4231C201.492 35.4231 206.031 33.339 207.386 29.7945H214.532C212.653 36.777 205.821 40.9472 194.557 40.9472C181.205 40.9472 173.069 34.8508 173.069 24.531H173.067ZM207.542 21.6653C206.289 16.0367 201.701 13.5362 194.241 13.5362C186.781 13.5362 181.88 16.1413 180.628 21.6653H207.54H207.542Z" fill="white"/>
<path d="M49.3478 13.7256L54.7914 19.0463C55.7118 19.9463 56.2313 21.1798 56.2313 22.4665V39.9031H49.3458V13.7256H49.3478Z" fill="white"/>
<path d="M46.7782 3.18074C47.6986 2.26106 48.9785 1.91568 50.1676 2.14462C50.8806 2.28277 51.562 2.62814 52.1151 3.18074C53.5886 4.65303 53.5886 7.04105 52.1151 8.51334L49.4466 11.1796L46.7782 8.51334C45.3047 7.04105 45.3047 4.65303 46.7782 3.18074Z" fill="#33CC00"/>
<path d="M50.6909 12.4227L53.3594 15.089C54.8329 16.5612 57.2229 16.5612 58.6963 15.089L67.3555 6.43681C68.829 4.96452 68.829 2.5765 67.3555 1.10421C65.882 -0.368071 63.4921 -0.368071 62.0186 1.10421L58.2796 4.84019L50.6909 12.4227Z" fill="#33CC00"/>
</svg>
