<svg width="19" height="18" viewBox="0 0 19 18" fill="none" xmlns="http://www.w3.org/2000/svg">
<path id="Vector" fill-rule="evenodd" clip-rule="evenodd" d="M17.8953 5.63855C17.8953 4.42023 17.8953 3.81106 17.5975 3.37347C17.4685 3.18403 17.3028 3.02138 17.1098 2.8948C16.7199 2.63905 16.1963 2.607 15.2406 2.60299C15.2443 2.85576 15.2442 3.1199 15.2442 3.39225L15.2442 3.46988V4.55422H16.1279C16.494 4.55422 16.7907 4.8455 16.7907 5.20482C16.7907 5.56414 16.494 5.85542 16.1279 5.85542H15.2442V7.15663H16.1279C16.494 7.15663 16.7907 7.44791 16.7907 7.80723C16.7907 8.16655 16.494 8.45783 16.1279 8.45783H15.2442V9.75904H16.1279C16.494 9.75904 16.7907 10.0503 16.7907 10.4096C16.7907 10.769 16.494 11.0602 16.1279 11.0602H15.2442V16.6988H13.9186V3.46988C13.9186 1.83416 13.9186 1.0163 13.4009 0.508152C12.8833 0 12.0501 0 10.3837 0H8.61628C6.94992 0 6.11674 0 5.59907 0.508152C5.0814 1.0163 5.0814 1.83416 5.0814 3.46988V16.6988H3.75581V11.0602H2.87209C2.50604 11.0602 2.2093 10.769 2.2093 10.4096C2.2093 10.0503 2.50604 9.75904 2.87209 9.75904H3.75581V8.45783H2.87209C2.50604 8.45783 2.2093 8.16655 2.2093 7.80723C2.2093 7.44791 2.50604 7.15663 2.87209 7.15663H3.75581V5.85542H2.87209C2.50604 5.85542 2.2093 5.56414 2.2093 5.20482C2.2093 4.8455 2.50604 4.55422 2.87209 4.55422H3.75581V3.46988L3.75581 3.39224C3.75577 3.1199 3.75574 2.85576 3.75938 2.60298C2.80371 2.607 2.28007 2.63906 1.89016 2.8948C1.69717 3.02138 1.53147 3.18403 1.40252 3.37347C1.10465 3.81106 1.10465 4.42023 1.10465 5.63855V16.6988H0.662791C0.296741 16.6988 0 16.9901 0 17.3494C0 17.7087 0.296741 18 0.662791 18H18.3372C18.7033 18 19 17.7087 19 17.3494C19 16.9901 18.7033 16.6988 18.3372 16.6988H17.8953V5.63855ZM7.06977 8.45783C7.06977 8.09851 7.36651 7.80723 7.73256 7.80723H11.2674C11.6335 7.80723 11.9302 8.09851 11.9302 8.45783C11.9302 8.81715 11.6335 9.10843 11.2674 9.10843H7.73256C7.36651 9.10843 7.06977 8.81715 7.06977 8.45783ZM7.06977 11.0602C7.06977 10.7009 7.36651 10.4096 7.73256 10.4096H11.2674C11.6335 10.4096 11.9302 10.7009 11.9302 11.0602C11.9302 11.4196 11.6335 11.7108 11.2674 11.7108H7.73256C7.36651 11.7108 7.06977 11.4196 7.06977 11.0602ZM9.5 14.0964C9.86605 14.0964 10.1628 14.3877 10.1628 14.747V16.6988H8.83721V14.747C8.83721 14.3877 9.13395 14.0964 9.5 14.0964ZM7.06977 3.68675C7.06977 3.32743 7.36651 3.03614 7.73256 3.03614H11.2674C11.6335 3.03614 11.9302 3.32743 11.9302 3.68675C11.9302 4.04606 11.6335 4.33735 11.2674 4.33735H7.73256C7.36651 4.33735 7.06977 4.04606 7.06977 3.68675ZM7.06977 6.28916C7.06977 5.92984 7.36651 5.63855 7.73256 5.63855H11.2674C11.6335 5.63855 11.9302 5.92984 11.9302 6.28916C11.9302 6.64847 11.6335 6.93976 11.2674 6.93976H7.73256C7.36651 6.93976 7.06977 6.64847 7.06977 6.28916Z" fill="white"/>
</svg>
