<svg width="52" height="41" viewBox="0 0 52 41" fill="none" xmlns="http://www.w3.org/2000/svg">
<path fill-rule="evenodd" clip-rule="evenodd" d="M20.8 0H31.2C41.0052 0 45.9078 0 48.9539 3.00216C52 6.00431 52 10.8362 52 20.5C52 30.1638 52 34.9957 48.9539 37.9978C45.9078 41 41.0052 41 31.2 41H20.8C10.9948 41 6.09218 41 3.04609 37.9978C0 34.9957 0 30.1638 0 20.5C0 10.8362 0 6.00431 3.04609 3.00216C6.09218 0 10.9948 0 20.8 0ZM29.25 12.8125C29.25 11.7511 30.123 10.8906 31.2 10.8906H44.2C45.277 10.8906 46.15 11.7511 46.15 12.8125C46.15 13.8739 45.277 14.7344 44.2 14.7344H31.2C30.123 14.7344 29.25 13.8739 29.25 12.8125ZM31.85 20.5C31.85 19.4386 32.723 18.5781 33.8 18.5781H44.2C45.277 18.5781 46.15 19.4386 46.15 20.5C46.15 21.5614 45.277 22.4219 44.2 22.4219H33.8C32.723 22.4219 31.85 21.5614 31.85 20.5ZM34.45 28.1875C34.45 27.1261 35.323 26.2656 36.4 26.2656H44.2C45.277 26.2656 46.15 27.1261 46.15 28.1875C46.15 29.2489 45.277 30.1094 44.2 30.1094H36.4C35.323 30.1094 34.45 29.2489 34.45 28.1875ZM23.4 12.8125C23.4 15.643 21.0719 17.9375 18.2 17.9375C15.3281 17.9375 13 15.643 13 12.8125C13 9.98204 15.3281 7.6875 18.2 7.6875C21.0719 7.6875 23.4 9.98204 23.4 12.8125ZM18.2 33.3125C28.6 33.3125 28.6 31.018 28.6 28.1875C28.6 25.357 23.9438 23.0625 18.2 23.0625C12.4562 23.0625 7.8 25.357 7.8 28.1875C7.8 31.018 7.8 33.3125 18.2 33.3125Z" fill="#282828"/>
</svg>
