<svg width="77" height="61" viewBox="0 0 77 61" fill="none" xmlns="http://www.w3.org/2000/svg">
<path id="Icon" fill-rule="evenodd" clip-rule="evenodd" d="M30.8 0H46.2C60.7193 0 67.9789 0 72.4894 4.46662C77 8.93324 77 16.1222 77 30.5C77 44.8778 77 52.0668 72.4894 56.5334C67.9789 61 60.7193 61 46.2 61H30.8C16.2807 61 9.02111 61 4.51056 56.5334C0 52.0668 0 44.8778 0 30.5C0 16.1222 0 8.93324 4.51056 4.46662C9.02111 0 16.2807 0 30.8 0ZM43.3125 19.0625C43.3125 17.4833 44.6053 16.2031 46.2 16.2031H65.45C67.0447 16.2031 68.3375 17.4833 68.3375 19.0625C68.3375 20.6417 67.0447 21.9219 65.45 21.9219H46.2C44.6053 21.9219 43.3125 20.6417 43.3125 19.0625ZM47.1625 30.5C47.1625 28.9208 48.4553 27.6406 50.05 27.6406H65.45C67.0447 27.6406 68.3375 28.9208 68.3375 30.5C68.3375 32.0792 67.0447 33.3594 65.45 33.3594H50.05C48.4553 33.3594 47.1625 32.0792 47.1625 30.5ZM51.0125 41.9375C51.0125 40.3583 52.3053 39.0781 53.9 39.0781H65.45C67.0447 39.0781 68.3375 40.3583 68.3375 41.9375C68.3375 43.5167 67.0447 44.7969 65.45 44.7969H53.9C52.3053 44.7969 51.0125 43.5167 51.0125 41.9375ZM34.65 19.0625C34.65 23.2737 31.2026 26.6875 26.95 26.6875C22.6974 26.6875 19.25 23.2737 19.25 19.0625C19.25 14.8513 22.6974 11.4375 26.95 11.4375C31.2026 11.4375 34.65 14.8513 34.65 19.0625ZM26.95 49.5625C42.35 49.5625 42.35 46.1487 42.35 41.9375C42.35 37.7263 35.4552 34.3125 26.95 34.3125C18.4448 34.3125 11.55 37.7263 11.55 41.9375C11.55 46.1487 11.55 49.5625 26.95 49.5625Z" fill="#33CC00"/>
</svg>
