<svg width="44" height="42" viewBox="0 0 44 42" fill="none" xmlns="http://www.w3.org/2000/svg">
<path fill-rule="evenodd" clip-rule="evenodd" d="M28.1395 0H32.2326C36.0915 0 38.021 0 39.2198 1.18569C40.4186 2.37138 40.4186 4.27971 40.4186 8.09639V38.9639H42.4651C43.3128 38.9639 44 39.6435 44 40.4819C44 41.3203 43.3128 42 42.4651 42H1.53488C0.687191 42 0 41.3203 0 40.4819C0 39.6435 0.687191 38.9639 1.53488 38.9639H3.5814V14.1687C3.5814 10.352 3.5814 8.44367 4.78021 7.25798C5.97903 6.07229 7.9085 6.07229 11.7674 6.07229H19.9535C23.8124 6.07229 25.7419 6.07229 26.9407 7.25798C28.1395 8.44367 28.1395 10.352 28.1395 14.1687V38.9639H31.2093V14.1687L31.2093 13.9875C31.2095 12.2354 31.2097 10.629 31.0321 9.32215C30.8365 7.8831 30.3762 6.36208 29.1114 5.1111C27.8465 3.86011 26.3087 3.40491 24.8537 3.21143C23.551 3.03821 21.9538 3.03595 20.2114 3.03612C20.3839 2.2523 20.6718 1.66095 21.1523 1.18569C22.3511 0 24.2806 0 28.1395 0ZM8.18605 12.1446C8.18605 11.3062 8.87324 10.6265 9.72093 10.6265H22C22.8477 10.6265 23.5349 11.3062 23.5349 12.1446C23.5349 12.983 22.8477 13.6627 22 13.6627H9.72093C8.87324 13.6627 8.18605 12.983 8.18605 12.1446ZM8.18605 18.2169C8.18605 17.3785 8.87324 16.6988 9.72093 16.6988H22C22.8477 16.6988 23.5349 17.3785 23.5349 18.2169C23.5349 19.0553 22.8477 19.7349 22 19.7349H9.72093C8.87324 19.7349 8.18605 19.0553 8.18605 18.2169ZM8.18605 24.2892C8.18605 23.4508 8.87324 22.7711 9.72093 22.7711H22C22.8477 22.7711 23.5349 23.4508 23.5349 24.2892C23.5349 25.1276 22.8477 25.8072 22 25.8072H9.72093C8.87324 25.8072 8.18605 25.1276 8.18605 24.2892ZM15.8605 32.8916C16.7082 32.8916 17.3953 33.5712 17.3953 34.4096V38.9639H14.3256V34.4096C14.3256 33.5712 15.0128 32.8916 15.8605 32.8916Z" fill="#282828"/>
</svg>
