<svg width="41" height="41" viewBox="0 0 41 41" fill="none" xmlns="http://www.w3.org/2000/svg">
<path id="Vector" d="M41 20.0857V24.6C41 32.331 41 36.1965 38.5983 38.5983C36.1966 41 32.331 41 24.6 41H16.4C8.66899 41 4.80345 41 2.40172 38.5983C0.404363 36.6009 0.0680801 33.5912 0.0114622 28.1876H17.822L13.1895 31.5567C12.5028 32.0561 12.351 33.0177 12.8504 33.7044C13.3498 34.3912 14.3114 34.543 14.9981 34.0435L23.4544 27.8935C23.8522 27.6042 24.0876 27.142 24.0876 26.6501C24.0876 26.1582 23.8522 25.696 23.4544 25.4067L14.9981 19.2567C14.3114 18.7572 13.3498 18.9091 12.8504 19.5958C12.351 20.2825 12.5028 21.2441 13.1895 21.7435L17.822 25.1126H2.68173e-05L0 24.6L5.57184e-05 10.147C5.57183e-05 8.33786 5.57154e-05 7.43318 0.142221 6.67969C0.768065 3.36263 3.36268 0.768013 6.67973 0.142168C7.43324 0 8.33783 0 10.147 0C10.9397 0 11.336 0 11.7169 0.0356193C13.3592 0.189187 14.9169 0.834422 16.1867 1.88706C16.4812 2.13121 16.7615 2.41147 17.322 2.97198L18.45 4.1C20.1224 5.77235 20.9585 6.60852 21.9599 7.16562C22.5099 7.47166 23.0934 7.71334 23.6987 7.88589C24.8007 8.2 25.9832 8.2 28.3483 8.2H29.1143C34.5107 8.2 37.2088 8.2 38.9626 9.7774C39.124 9.9225 39.2775 10.076 39.4226 10.2374C41 11.9912 41 14.6893 41 20.0857Z" fill="white"/>
</svg>
