<svg width="38" height="28" viewBox="0 0 38 28" fill="none" xmlns="http://www.w3.org/2000/svg">
<g id="Vector">
<path d="M7.4531 0.392222C7.97026 0.914448 7.96942 1.7603 7.45123 2.28149C4.4844 5.26549 2.65116 9.38755 2.65116 13.9436C2.65116 18.553 4.52754 22.7182 7.55587 25.7101C8.07866 26.2266 8.08701 27.0724 7.5745 27.5993C7.062 28.1262 6.22273 28.1346 5.69994 27.6181C2.18393 24.1444 0 19.2998 0 13.9436C0 8.6495 2.13367 3.85505 5.57845 0.390338C6.09664 -0.130847 6.93595 -0.130004 7.4531 0.392222Z" fill="#282828"/>
<path d="M30.6941 0.521154C31.2169 0.00465832 32.0562 0.0130648 32.5687 0.53993C35.927 3.9924 38 8.72538 38 13.9436C38 19.224 35.8775 24.0072 32.4485 27.4698C31.9313 27.992 31.092 27.9929 30.5738 27.4717C30.0557 26.9505 30.0548 26.1046 30.572 25.5824C33.5252 22.6003 35.3488 18.4879 35.3488 13.9436C35.3488 9.45266 33.5677 5.3836 30.6755 2.41033C30.163 1.88346 30.1713 1.03765 30.6941 0.521154Z" fill="#282828"/>
<path d="M12.4768 5.90602C12.977 6.44474 12.9492 7.29012 12.4147 7.79425C10.7375 9.37596 9.72093 11.5394 9.72093 13.912C9.72093 16.3122 10.7614 18.4987 12.4738 20.085C13.0128 20.5843 13.0481 21.4295 12.5527 21.9726C12.0572 22.5158 11.2186 22.5514 10.6797 22.0521C8.46547 20.0009 7.06977 17.1185 7.06977 13.912C7.06977 10.7428 8.43332 7.88978 10.6032 5.84341C11.1377 5.33928 11.9766 5.36731 12.4768 5.90602Z" fill="#282828"/>
<path d="M25.6153 5.97375C26.1213 5.44058 26.9605 5.42177 27.4895 5.93176C29.6055 7.97148 30.9302 10.7884 30.9302 13.912C30.9302 17.0729 29.5738 19.9193 27.4138 21.9645C26.8803 22.4697 26.0414 22.4434 25.5401 21.9057C25.0388 21.368 25.0649 20.5225 25.5985 20.0173C27.2678 18.4367 28.2791 16.2784 28.2791 13.912C28.2791 11.5732 27.2913 9.43798 25.657 7.86255C25.1279 7.35257 25.1093 6.50693 25.6153 5.97375Z" fill="#282828"/>
<path d="M19 17.5061C20.9523 17.5061 22.5349 15.9112 22.5349 13.9437C22.5349 11.9762 20.9523 10.3813 19 10.3813C17.0477 10.3813 15.4651 11.9762 15.4651 13.9437C15.4651 15.9112 17.0477 17.5061 19 17.5061Z" fill="#282828"/>
</g>
</svg>
