<svg width="53" height="43" viewBox="0 0 53 43" fill="none" xmlns="http://www.w3.org/2000/svg">
<path id="Vector" fill-rule="evenodd" clip-rule="evenodd" d="M0 21.5C0 11.3648 0 6.2972 3.10467 3.1486C6.20934 0 11.2062 0 21.2 0H31.8C41.7938 0 46.7907 0 49.8953 3.1486C53 6.2972 53 11.3648 53 21.5C53 31.6352 53 36.7028 49.8953 39.8514C46.7907 43 41.7938 43 31.8 43H21.2C11.2062 43 6.20934 43 3.10467 39.8514C0 36.7028 0 31.6352 0 21.5ZM10.6 30.2344C9.50233 30.2344 8.6125 31.1368 8.6125 32.25C8.6125 33.3632 9.50233 34.2656 10.6 34.2656H21.2C22.2977 34.2656 23.1875 33.3632 23.1875 32.25C23.1875 31.1368 22.2977 30.2344 21.2 30.2344H10.6ZM15.2375 24.1875C15.2375 23.0743 14.3477 22.1719 13.25 22.1719H10.6C9.50233 22.1719 8.6125 23.0743 8.6125 24.1875C8.6125 25.3007 9.50233 26.2031 10.6 26.2031H13.25C14.3477 26.2031 15.2375 25.3007 15.2375 24.1875ZM25.175 22.1719C26.2727 22.1719 27.1625 23.0743 27.1625 24.1875C27.1625 25.3007 26.2727 26.2031 25.175 26.2031H19.875C18.7773 26.2031 17.8875 25.3007 17.8875 24.1875C17.8875 23.0743 18.7773 22.1719 19.875 22.1719H25.175ZM44.3875 24.1875C44.3875 23.0743 43.4977 22.1719 42.4 22.1719H31.8C30.7023 22.1719 29.8125 23.0743 29.8125 24.1875C29.8125 25.3007 30.7023 26.2031 31.8 26.2031H42.4C43.4977 26.2031 44.3875 25.3007 44.3875 24.1875ZM27.825 30.2344C26.7273 30.2344 25.8375 31.1368 25.8375 32.25C25.8375 33.3632 26.7273 34.2656 27.825 34.2656H31.8C32.8977 34.2656 33.7875 33.3632 33.7875 32.25C33.7875 31.1368 32.8977 30.2344 31.8 30.2344H27.825ZM36.4375 32.25C36.4375 31.1368 37.3273 30.2344 38.425 30.2344H42.4C43.4977 30.2344 44.3875 31.1368 44.3875 32.25C44.3875 33.3632 43.4977 34.2656 42.4 34.2656H38.425C37.3273 34.2656 36.4375 33.3632 36.4375 32.25Z" fill="#33CC00"/>
</svg>
