<svg width="24" height="24" viewBox="0 0 24 24" fill="none" xmlns="http://www.w3.org/2000/svg">
<g id="Vector">
<path fill-rule="evenodd" clip-rule="evenodd" d="M12 10.988C12.2387 10.988 12.4676 10.8966 12.6364 10.7339L16.2364 7.264C16.5879 6.92523 16.5879 6.37598 16.2364 6.03721C15.8849 5.69844 15.3151 5.69844 14.9636 6.03721L12.9 8.02622V0.86747C12.9 0.38838 12.4971 0 12 0C11.5029 0 11.1 0.38838 11.1 0.86747V8.02622L9.0364 6.03721C8.68493 5.69844 8.11508 5.69844 7.7636 6.03721C7.41213 6.37598 7.41213 6.92523 7.7636 7.264L11.3636 10.7339C11.5324 10.8966 11.7613 10.988 12 10.988Z" fill="#33CC00"/>
<path d="M1.75736 22.3062C3.51472 24 6.34315 24 12 24C17.6569 24 20.4853 24 22.2426 22.3062C23.7676 20.8363 23.9693 18.5891 23.9959 14.4578H20.2077C19.0391 14.4578 18.7336 14.4764 18.4771 14.5901C18.2205 14.7038 18.0071 14.9153 17.2466 15.7705L16.4153 16.7055C15.8127 17.3845 15.3355 17.9222 14.6751 18.215C14.0146 18.5078 13.2805 18.5071 12.3534 18.5061H11.6466C10.7195 18.5071 9.98537 18.5078 9.32492 18.215C8.66446 17.9222 8.18725 17.3845 7.5847 16.7055L6.75341 15.7705C5.99292 14.9153 5.77946 14.7038 5.52294 14.5901C5.26642 14.4764 4.96088 14.4578 3.79231 14.4578H0.0040648C0.0307359 18.5891 0.232409 20.8363 1.75736 22.3062Z" fill="#33CC00"/>
<path d="M24 12.4337C24 6.98135 24 4.25515 22.2426 2.56131C20.7904 1.16157 18.6068 0.918535 14.7 0.876336V4.19639C15.6498 3.87353 16.7495 4.07821 17.5092 4.81042C18.5636 5.82672 18.5636 7.47448 17.5092 8.49078L13.9092 11.9607C13.4028 12.4487 12.7161 12.7229 12 12.7229C11.2839 12.7229 10.5972 12.4487 10.0908 11.9607L6.49081 8.49078C5.4364 7.47448 5.4364 5.82672 6.49081 4.81042C7.25048 4.07821 8.35021 3.87353 9.3 4.19639V0.876336C5.39323 0.918535 3.20959 1.16157 1.75736 2.56131C0 4.25515 0 6.98135 0 12.4337L1.00136e-05 12.7229L3.95345 12.7228C4.88045 12.7218 5.61463 12.7211 6.27508 13.0139C6.93554 13.3067 7.41275 13.8444 8.0153 14.5234L8.84659 15.4584C9.60708 16.3136 9.82054 16.5251 10.0771 16.6388C10.3336 16.7525 10.6391 16.7711 11.8077 16.7711H12.1923C13.3609 16.7711 13.6664 16.7525 13.9229 16.6388C14.1795 16.5251 14.3929 16.3136 15.1534 15.4584L15.9847 14.5234C16.5873 13.8444 17.0645 13.3067 17.7249 13.0139C18.3854 12.7211 19.1195 12.7218 20.0466 12.7228L24 12.7229L24 12.4337Z" fill="#33CC00"/>
</g>
</svg>
