<svg width="38" height="36" viewBox="0 0 38 36" fill="none" xmlns="http://www.w3.org/2000/svg">
<path id="Vector" fill-rule="evenodd" clip-rule="evenodd" d="M35.7907 11.2771C35.7907 8.84045 35.7907 7.62212 35.195 6.74694C34.9371 6.36806 34.6057 6.04276 34.2197 5.7896C33.4399 5.27811 32.3926 5.214 30.4812 5.20597C30.4885 5.71152 30.4885 6.2398 30.4884 6.7845L30.4884 6.93976V9.10843H32.2558C32.9879 9.10843 33.5814 9.691 33.5814 10.4096C33.5814 11.1283 32.9879 11.7108 32.2558 11.7108H30.4884V14.3133H32.2558C32.9879 14.3133 33.5814 14.8958 33.5814 15.6145C33.5814 16.3331 32.9879 16.9157 32.2558 16.9157H30.4884V19.5181H32.2558C32.9879 19.5181 33.5814 20.1006 33.5814 20.8193C33.5814 21.5379 32.9879 22.1205 32.2558 22.1205H30.4884V33.3976H27.8372V6.93976C27.8372 3.66833 27.8372 2.03261 26.8019 1.0163C25.7665 0 24.1002 0 20.7674 0H17.2326C13.8998 0 12.2335 0 11.1981 1.0163C10.1628 2.03261 10.1628 3.66833 10.1628 6.93976V33.3976H7.51163V22.1205H5.74419C5.01209 22.1205 4.4186 21.5379 4.4186 20.8193C4.4186 20.1006 5.01209 19.5181 5.74419 19.5181H7.51163V16.9157H5.74419C5.01209 16.9157 4.4186 16.3331 4.4186 15.6145C4.4186 14.8958 5.01209 14.3133 5.74419 14.3133H7.51163V11.7108H5.74419C5.01209 11.7108 4.4186 11.1283 4.4186 10.4096C4.4186 9.691 5.01209 9.10843 5.74419 9.10843H7.51163V6.93976L7.51161 6.78449C7.51155 6.23979 7.51149 5.71152 7.51875 5.20597C5.60742 5.214 4.56015 5.27811 3.78031 5.7896C3.39434 6.04276 3.06294 6.36806 2.80504 6.74694C2.2093 7.62212 2.2093 8.84045 2.2093 11.2771V33.3976H1.32558C0.593483 33.3976 0 33.9802 0 34.6988C0 35.4174 0.593483 36 1.32558 36H36.6744C37.4065 36 38 35.4174 38 34.6988C38 33.9802 37.4065 33.3976 36.6744 33.3976H35.7907V11.2771ZM14.1395 16.9157C14.1395 16.197 14.733 15.6145 15.4651 15.6145H22.5349C23.267 15.6145 23.8605 16.197 23.8605 16.9157C23.8605 17.6343 23.267 18.2169 22.5349 18.2169H15.4651C14.733 18.2169 14.1395 17.6343 14.1395 16.9157ZM14.1395 22.1205C14.1395 21.4018 14.733 20.8193 15.4651 20.8193H22.5349C23.267 20.8193 23.8605 21.4018 23.8605 22.1205C23.8605 22.8391 23.267 23.4217 22.5349 23.4217H15.4651C14.733 23.4217 14.1395 22.8391 14.1395 22.1205ZM19 28.1928C19.7321 28.1928 20.3256 28.7753 20.3256 29.494V33.3976H17.6744V29.494C17.6744 28.7753 18.2679 28.1928 19 28.1928ZM14.1395 7.37349C14.1395 6.65486 14.733 6.07229 15.4651 6.07229H22.5349C23.267 6.07229 23.8605 6.65486 23.8605 7.37349C23.8605 8.09213 23.267 8.6747 22.5349 8.6747H15.4651C14.733 8.6747 14.1395 8.09213 14.1395 7.37349ZM14.1395 12.5783C14.1395 11.8597 14.733 11.2771 15.4651 11.2771H22.5349C23.267 11.2771 23.8605 11.8597 23.8605 12.5783C23.8605 13.2969 23.267 13.8795 22.5349 13.8795H15.4651C14.733 13.8795 14.1395 13.2969 14.1395 12.5783Z" fill="#33CC00"/>
</svg>
