<svg width="72" height="70" viewBox="0 0 72 70" fill="none" xmlns="http://www.w3.org/2000/svg">
<path id="Vector" opacity="0.5" fill-rule="evenodd" clip-rule="evenodd" d="M67.8139 21.9277C67.8139 17.1898 67.8139 14.8208 66.6852 13.119C66.1965 12.3823 65.5686 11.7498 64.8373 11.2576C63.3597 10.263 61.3754 10.1383 57.7539 10.1227C57.7677 11.1057 57.7676 12.1329 57.7675 13.1921L57.7674 13.494V17.7108H61.1163C62.5034 17.7108 63.6279 18.8436 63.6279 20.241C63.6279 21.6383 62.5034 22.7711 61.1163 22.7711H57.7674V27.8313H61.1163C62.5034 27.8313 63.6279 28.9641 63.6279 30.3614C63.6279 31.7588 62.5034 32.8916 61.1163 32.8916H57.7674V37.9518H61.1163C62.5034 37.9518 63.6279 39.0846 63.6279 40.4819C63.6279 41.8793 62.5034 43.012 61.1163 43.012H57.7674V64.9398H52.7442V13.494C52.7442 7.13285 52.7442 3.95229 50.7825 1.97615C48.8208 0 45.6635 0 39.3488 0H32.6512C26.3365 0 23.1792 0 21.2175 1.97615C19.2558 3.95229 19.2558 7.13285 19.2558 13.494V64.9398H14.2326V43.012H10.8837C9.49659 43.012 8.37209 41.8793 8.37209 40.4819C8.37209 39.0846 9.49659 37.9518 10.8837 37.9518H14.2326V32.8916H10.8837C9.49659 32.8916 8.37209 31.7588 8.37209 30.3614C8.37209 28.9641 9.49659 27.8313 10.8837 27.8313H14.2326V22.7711H10.8837C9.49659 22.7711 8.37209 21.6383 8.37209 20.241C8.37209 18.8436 9.49659 17.7108 10.8837 17.7108H14.2326V13.494L14.2325 13.1921C14.2324 12.1329 14.2323 11.1057 14.2461 10.1227C10.6246 10.1383 8.64028 10.263 7.16269 11.2576C6.43137 11.7498 5.80346 12.3823 5.31481 13.119C4.18605 14.8208 4.18605 17.1898 4.18605 21.9277V64.9398H2.51163C1.12449 64.9398 0 66.0725 0 67.4699C0 68.8672 1.12449 70 2.51163 70H69.4884C70.8755 70 72 68.8672 72 67.4699C72 66.0725 70.8755 64.9398 69.4884 64.9398H67.8139V21.9277ZM26.7907 32.8916C26.7907 31.4942 27.9152 30.3614 29.3023 30.3614H42.6977C44.0848 30.3614 45.2093 31.4942 45.2093 32.8916C45.2093 34.2889 44.0848 35.4217 42.6977 35.4217H29.3023C27.9152 35.4217 26.7907 34.2889 26.7907 32.8916ZM26.7907 43.012C26.7907 41.6147 27.9152 40.4819 29.3023 40.4819H42.6977C44.0848 40.4819 45.2093 41.6147 45.2093 43.012C45.2093 44.4094 44.0848 45.5422 42.6977 45.5422H29.3023C27.9152 45.5422 26.7907 44.4094 26.7907 43.012ZM36 54.8193C37.3871 54.8193 38.5116 55.952 38.5116 57.3494V64.9398H33.4884V57.3494C33.4884 55.952 34.6129 54.8193 36 54.8193ZM26.7907 14.3373C26.7907 12.94 27.9152 11.8072 29.3023 11.8072H42.6977C44.0848 11.8072 45.2093 12.94 45.2093 14.3373C45.2093 15.7347 44.0848 16.8675 42.6977 16.8675H29.3023C27.9152 16.8675 26.7907 15.7347 26.7907 14.3373ZM26.7907 24.4578C26.7907 23.0605 27.9152 21.9277 29.3023 21.9277H42.6977C44.0848 21.9277 45.2093 23.0605 45.2093 24.4578C45.2093 25.8552 44.0848 26.988 42.6977 26.988H29.3023C27.9152 26.988 26.7907 25.8552 26.7907 24.4578Z" fill="#282828"/>
</svg>
