<svg width="21" height="21" viewBox="0 0 21 21" fill="none" xmlns="http://www.w3.org/2000/svg">
<g id="Vector">
<path fill-rule="evenodd" clip-rule="evenodd" d="M10.5 9.65663C10.6989 9.65663 10.8897 9.58046 11.0303 9.4449L14.0303 6.55333C14.3232 6.27102 14.3232 5.81331 14.0303 5.53101C13.7374 5.2487 13.2626 5.2487 12.9697 5.53101L11.25 7.18852V1.22289C11.25 0.82365 10.9142 0.5 10.5 0.5C10.0858 0.5 9.75 0.82365 9.75 1.22289V7.18852L8.03033 5.53101C7.73744 5.2487 7.26256 5.2487 6.96967 5.53101C6.67678 5.81331 6.67678 6.27102 6.96967 6.55333L9.96967 9.4449C10.1103 9.58046 10.3011 9.65663 10.5 9.65663Z" fill="white"/>
<path d="M1.96447 19.0885C3.42893 20.5 5.78595 20.5 10.5 20.5C15.214 20.5 17.5711 20.5 19.0355 19.0885C20.3063 17.8636 20.4744 15.991 20.4966 12.5482H17.3397C16.3659 12.5482 16.1113 12.5637 15.8975 12.6584C15.6838 12.7532 15.5059 12.9295 14.8722 13.6421L14.1794 14.4212C13.6773 14.9871 13.2796 15.4352 12.7292 15.6792C12.1789 15.9232 11.567 15.9226 10.7945 15.9218H10.2055C9.43295 15.9226 8.82114 15.9232 8.27076 15.6792C7.72039 15.4352 7.32271 14.9871 6.82058 14.4212L6.12784 13.6421C5.4941 12.9295 5.31622 12.7532 5.10245 12.6584C4.88869 12.5637 4.63407 12.5482 3.66026 12.5482H0.503387C0.525613 15.991 0.693674 17.8636 1.96447 19.0885Z" fill="white"/>
<path d="M20.5 10.8614C20.5 6.31779 20.5 4.04596 19.0355 2.63442C17.8253 1.46798 16.0056 1.26545 12.75 1.23028V3.99699C13.5415 3.72794 14.4579 3.89851 15.091 4.50868C15.9697 5.3556 15.9697 6.72873 15.091 7.57565L12.091 10.4672C11.669 10.8739 11.0967 11.1024 10.5 11.1024C9.90326 11.1024 9.33097 10.8739 8.90901 10.4672L5.90901 7.57565C5.03033 6.72873 5.03033 5.3556 5.90901 4.50868C6.54207 3.89851 7.45851 3.72794 8.25 3.99699V1.23028C4.99436 1.26545 3.17466 1.46798 1.96447 2.63442C0.5 4.04596 0.5 6.31779 0.5 10.8614L0.500008 11.1024L3.79454 11.1023C4.56705 11.1015 5.17886 11.1009 5.72924 11.3449C6.27961 11.5889 6.67729 12.037 7.17941 12.6029L7.87216 13.382C8.5059 14.0946 8.68378 14.2709 8.89755 14.3657C9.11131 14.4604 9.36593 14.4759 10.3397 14.4759H10.6603C11.6341 14.4759 11.8887 14.4604 12.1025 14.3657C12.3162 14.2709 12.4941 14.0946 13.1278 13.382L13.8206 12.6029C14.3227 12.037 14.7204 11.5889 15.2708 11.3449C15.8211 11.1009 16.433 11.1015 17.2055 11.1023L20.5 11.1024L20.5 10.8614Z" fill="white"/>
</g>
</svg>
