<svg width="34" height="34" viewBox="0 0 34 34" fill="none" xmlns="http://www.w3.org/2000/svg">
<g id="Vector">
<path fill-rule="evenodd" clip-rule="evenodd" d="M2.87233 16.9699C3.35196 17.4501 3.35149 18.2282 2.87127 18.7078L2.61927 18.9595C2.40402 19.1745 2.40402 19.5224 2.61927 19.7374C2.83535 19.9532 3.18631 19.9532 3.40239 19.7374L6.17439 16.9688C6.65461 16.4892 7.43271 16.4897 7.91234 16.9699C8.39197 17.4501 8.3915 18.2282 7.91128 18.7078L5.13928 21.4764C3.9636 22.6506 2.05806 22.6506 0.88238 21.4764C-0.294127 20.3013 -0.294127 18.3956 0.88238 17.2205L1.13438 16.9688C1.61459 16.4892 2.3927 16.4897 2.87233 16.9699ZM10.826 18.6023C11.3059 19.0822 11.3059 19.8603 10.826 20.3402L7.35735 23.8088C6.87742 24.2888 6.09932 24.2888 5.6194 23.8088C5.13947 23.3289 5.13947 22.5508 5.6194 22.0709L9.08806 18.6023C9.56798 18.1224 10.3461 18.1224 10.826 18.6023ZM15.3742 23.1448C15.8541 23.6248 15.8541 24.4029 15.3742 24.8828L11.9292 28.3277C11.4493 28.8076 10.6712 28.8076 10.1913 28.3277C9.71134 27.8478 9.71135 27.0697 10.1913 26.5898L13.6362 23.1448C14.1161 22.6649 14.8942 22.6649 15.3742 23.1448ZM10.1955 23.7935C10.67 24.2787 10.6613 25.0567 10.1761 25.5313L7.37489 28.2708C6.88966 28.7454 6.1116 28.7367 5.63705 28.2515C5.16249 27.7663 5.17115 26.9882 5.65639 26.5137L8.45761 23.7741C8.94284 23.2996 9.7209 23.3082 10.1955 23.7935ZM16.9694 26.0959C17.4491 26.5761 17.4486 27.3542 16.9684 27.8338L14.1964 30.6024C13.9811 30.8174 13.9811 31.1653 14.1964 31.3803C14.4124 31.5961 14.7634 31.5961 14.9795 31.3803L15.2315 31.1286C15.7117 30.649 16.4898 30.6495 16.9694 31.1297C17.4491 31.6099 17.4486 32.388 16.9684 32.8676L16.7164 33.1193C15.5407 34.2936 13.6352 34.2936 12.4595 33.1193C11.283 31.9443 11.283 30.0385 12.4595 28.8634L15.2315 26.0948C15.7117 25.6152 16.4898 25.6157 16.9694 26.0959Z" fill="#33CC00"/>
<path d="M15.9417 5.51952L12.3997 9.05085C11.7486 9.69992 11.1514 10.2953 10.6798 10.8336C10.3769 11.1792 10.0742 11.5575 9.81781 11.9755L9.7833 11.9411C9.71779 11.8758 9.68499 11.8431 9.6521 11.8112C9.03645 11.2139 8.31229 10.7389 7.51834 10.4118C7.47591 10.3944 7.43285 10.3773 7.34673 10.3432L6.81937 10.1342C6.10493 9.85111 5.91452 8.9314 6.45815 8.38942C8.01833 6.83398 9.89156 4.96645 10.7956 4.59136C11.5929 4.26056 12.4541 4.15049 13.2848 4.27325C14.0459 4.38572 14.7659 4.77667 15.9417 5.51952Z" fill="#33CC00"/>
<path d="M21.9896 24.1129C22.275 24.4025 22.4646 24.6072 22.636 24.8258C22.8621 25.1143 23.0643 25.4208 23.2405 25.742C23.4389 26.1037 23.5929 26.4901 23.9009 27.2628C24.1517 27.8918 24.9847 28.0581 25.4686 27.5757L25.5856 27.459C27.1458 25.9035 29.0189 24.0359 29.3951 23.1346C29.7269 22.3397 29.8373 21.481 29.7142 20.6529C29.6014 19.8942 29.2094 19.1764 28.4645 18.0045L24.9106 21.5476C24.2448 22.2114 23.6343 22.8201 23.0822 23.2969C22.7513 23.5827 22.3893 23.8683 21.9896 24.1129Z" fill="#33CC00"/>
<path fill-rule="evenodd" clip-rule="evenodd" d="M23.4798 20.0234L31.6231 11.9047C32.7959 10.7354 33.3823 10.1508 33.6911 9.40742C34 8.66401 34 7.83725 34 6.18374V5.39379C34 2.85113 34 1.57981 33.2077 0.789903C32.4154 0 31.1403 0 28.5899 0H27.7976C26.1391 0 25.3098 0 24.5642 0.307933C23.8185 0.615866 23.2321 1.20048 22.0594 2.3697L13.9161 10.4885C12.5457 11.8547 11.696 12.7018 11.367 13.5201C11.263 13.7786 11.211 14.0342 11.211 14.3025C11.211 15.4195 12.1127 16.3185 13.9161 18.1164L14.1584 18.3581L16.9976 15.4766C17.4025 15.0657 18.0639 15.0608 18.4748 15.4657C18.8858 15.8706 18.8907 16.5319 18.4858 16.9428L15.6379 19.8331L15.8288 20.0234C17.6322 21.8214 18.5339 22.7203 19.6543 22.7203C19.9019 22.7203 20.1388 22.6764 20.3771 22.5887C21.2173 22.2792 22.0749 21.4241 23.4798 20.0234ZM27.3055 10.4891C26.2491 11.5423 24.5364 11.5423 23.48 10.4891C22.4236 9.43585 22.4236 7.72828 23.48 6.67507C24.5364 5.62187 26.2491 5.62187 27.3055 6.67507C28.3619 7.72828 28.3619 9.43585 27.3055 10.4891Z" fill="#33CC00"/>
</g>
</svg>
