<svg width="24" height="24" viewBox="0 0 24 24" fill="none" xmlns="http://www.w3.org/2000/svg">
<path fill-rule="evenodd" clip-rule="evenodd" d="M18.165 2.78325C16.0901 0.922434 13.3815 -0.0721966 10.5962 0.00407865C7.8108 0.0803538 5.16066 1.22173 3.1906 3.19328C1.22056 5.16482 0.0803276 7.81665 0.00412835 10.6035C-0.0720708 13.3903 0.921546 16.1005 2.78088 18.1769C4.64023 20.2533 7.22402 21.538 10.001 21.7666C12.4773 21.9704 14.9393 21.3207 16.9845 19.9406L20.4198 23.3785L20.4214 23.3801C20.6162 23.5762 20.8478 23.732 21.103 23.8384C21.3589 23.9451 21.6334 24 21.9106 24C22.1879 24 22.4623 23.9451 22.7182 23.8384C22.9741 23.7317 23.2063 23.5754 23.4015 23.3786L23.4104 23.3693C23.7887 22.9776 24 22.4544 24 21.9099C24 21.3655 23.7887 20.8422 23.4104 20.4506L23.4031 20.443L19.9285 16.9938C21.3065 14.9476 21.9552 12.4849 21.7516 10.008C21.5233 7.22952 20.2398 4.64404 18.165 2.78325ZM9.61107 4.35209C10.9097 4.09358 12.2558 4.22625 13.4791 4.73335C14.7025 5.24046 15.7482 6.09928 16.484 7.20131C17.2198 8.30334 17.6126 9.59907 17.6126 10.9246C17.6126 12.7022 16.907 14.4067 15.6513 15.6634C14.3956 16.9201 12.6926 17.6259 10.9171 17.6259C9.59308 17.6259 8.29869 17.233 7.19766 16.4967C6.09661 15.7605 5.23833 14.7139 4.73148 13.4893C4.22462 12.2647 4.09199 10.9172 4.3504 9.61713C4.6088 8.31706 5.2466 7.12298 6.18303 6.18584C7.11945 5.24871 8.31243 4.6106 9.61107 4.35209Z" fill="#272727"/>
</svg>
