<svg width="29" height="30" viewBox="0 0 29 30" fill="none" xmlns="http://www.w3.org/2000/svg">
<g id="Vector">
<path fill-rule="evenodd" clip-rule="evenodd" d="M14.4582 2.16869C13.0435 2.16869 11.8371 3.07235 11.39 4.33729C11.1904 4.90192 10.5709 5.19787 10.0063 4.9983C9.44165 4.79873 9.14571 4.17922 9.34528 3.61458C10.089 1.51026 12.0959 0 14.4582 0C16.8206 0 18.8274 1.51026 19.5712 3.61458C19.7707 4.17922 19.4748 4.79873 18.9102 4.9983C18.3455 5.19787 17.726 4.90192 17.5264 4.33729C17.0793 3.07235 15.8729 2.16869 14.4582 2.16869Z" fill="#33CC00"/>
<path d="M17.3495 16.2652H11.5664C11.1671 16.2652 10.8435 16.5888 10.8435 16.9881V20.1131C10.8435 20.4087 11.0234 20.6746 11.2979 20.7843L12.3101 21.1892C13.6889 21.7407 15.227 21.7407 16.6058 21.1892L17.618 20.7843C17.8925 20.6746 18.0724 20.4087 18.0724 20.1131V16.9881C18.0724 16.5888 17.7488 16.2652 17.3495 16.2652Z" fill="#33CC00"/>
<path d="M8.69032 20.4134L1.45427 18.2426C1.49777 22.7455 1.76082 26.8924 3.35123 28.3061C5.25681 30 8.32381 30 14.4578 30C20.5918 30 23.6588 30 25.5643 28.3061C27.1548 26.8925 27.4178 22.7455 27.4613 18.2426L20.2256 20.4133C20.1153 21.4727 19.4274 22.3963 18.4234 22.7979L17.4112 23.2028C15.5154 23.9611 13.4005 23.9611 11.5047 23.2028L10.4924 22.7979C9.48845 22.3963 8.80057 21.4727 8.69032 20.4134Z" fill="#33CC00"/>
<path d="M8.10935 5.42173H20.8065C24.3489 5.42173 26.1202 5.42173 27.316 6.39472C27.5458 6.58173 27.7559 6.7918 27.9429 7.02163C28.9159 8.21745 28.9159 9.98866 28.9159 13.5311C28.9159 14.43 28.9159 14.8794 28.6979 15.23C28.6554 15.2983 28.6073 15.3629 28.5541 15.4232C28.281 15.7328 27.8505 15.8619 26.9895 16.1202L20.2411 18.1447V16.9881C20.2411 15.3911 18.9465 14.0965 17.3495 14.0965H11.5664C9.96937 14.0965 8.67476 15.3911 8.67476 16.9881V18.1447L1.92638 16.1202C1.06541 15.8619 0.634921 15.7328 0.361756 15.4232C0.308544 15.3629 0.260456 15.2983 0.217992 15.23C0 14.8794 0 14.43 0 13.5311C0 9.98866 0 8.21745 0.972992 7.02164C1.16 6.7918 1.37007 6.58173 1.59991 6.39472C2.79573 5.42173 4.56694 5.42173 8.10935 5.42173Z" fill="#33CC00"/>
</g>
</svg>
