<svg width="24" height="24" viewBox="0 0 24 24" fill="none" xmlns="http://www.w3.org/2000/svg">
<path id="Union" fill-rule="evenodd" clip-rule="evenodd" d="M18.1649 2.78325C16.09 0.922439 13.3815 -0.0721914 10.5961 0.00408382C7.81076 0.080359 5.16061 1.22173 3.19055 3.19329C1.22051 5.16482 0.080279 7.81665 0.00407981 10.6035C-0.0721194 13.3903 0.921498 16.1005 2.78083 18.1769C4.64018 20.2533 7.22397 21.538 10.001 21.7666C12.4773 21.9704 14.9392 21.3207 16.9845 19.9406L20.4198 23.3785L20.4213 23.3801C20.6161 23.5762 20.8478 23.732 21.103 23.8384C21.3588 23.9451 21.6333 24 21.9106 24C22.1878 24 22.4623 23.9451 22.7182 23.8384C22.9741 23.7317 23.2063 23.5754 23.4014 23.3786L23.4104 23.3693C23.7887 22.9776 24 22.4544 24 21.9099C24 21.3655 23.7887 20.8423 23.4104 20.4506L23.4031 20.443L19.9284 16.9939C21.3065 14.9476 21.9552 12.4849 21.7516 10.008C21.5232 7.22953 20.2398 4.64404 18.1649 2.78325ZM9.61102 4.35209C10.9097 4.09358 12.2557 4.22625 13.4791 4.73336C14.7024 5.24047 15.7482 6.09928 16.4839 7.20131C17.2197 8.30335 17.6125 9.59907 17.6125 10.9246C17.6125 12.7022 16.9069 14.4067 15.6512 15.6634C14.3955 16.9201 12.6926 17.6259 10.9171 17.6259C9.59303 17.6259 8.29865 17.233 7.19761 16.4967C6.09656 15.7605 5.23829 14.7139 4.73143 13.4893C4.22457 12.2648 4.09195 10.9172 4.35035 9.61713C4.60875 8.31707 5.24655 7.12299 6.18298 6.18585C7.1194 5.24871 8.31239 4.6106 9.61102 4.35209Z" fill="#33CC00"/>
</svg>
