<svg width="37" height="37" viewBox="0 0 37 37" fill="none" xmlns="http://www.w3.org/2000/svg">
<g id="Vector">
<path d="M12.6579 5.91999C12.6579 9.18951 15.2735 11.84 18.5 11.84C21.7265 11.84 24.3421 9.18951 24.3421 5.91999C24.3421 2.65047 21.7265 0 18.5 0C15.2735 0 12.6579 2.65047 12.6579 5.91999Z" fill="#33CC00"/>
<path d="M0 29.6C0 32.8695 2.6156 35.52 5.8421 35.52C9.06861 35.52 11.6842 32.8695 11.6842 29.6C11.6842 26.3304 9.06861 23.68 5.8421 23.68C2.6156 23.68 0 26.3304 0 29.6Z" fill="#33CC00"/>
<path d="M31.1579 35.52C27.9314 35.52 25.3158 32.8695 25.3158 29.6C25.3158 26.3304 27.9314 23.68 31.1579 23.68C34.3844 23.68 37 26.3304 37 29.6C37 32.8695 34.3844 35.52 31.1579 35.52Z" fill="#33CC00"/>
<path d="M9.16174 9.00294C9.7665 8.46205 9.82405 7.52679 9.29029 6.91396C8.75652 6.30114 7.83355 6.24282 7.22879 6.7837C3.6937 9.94541 1.46053 14.576 1.46053 19.7334C1.46053 20.5507 2.11443 21.2134 2.92105 21.2134C3.72768 21.2134 4.38158 20.5507 4.38158 19.7334C4.38158 15.4605 6.22823 11.6266 9.16174 9.00294Z" fill="#33CC00"/>
<path d="M29.7712 6.7837C29.1664 6.24282 28.2435 6.30114 27.7097 6.91396C27.1759 7.52679 27.2335 8.46205 27.8383 9.00294C30.7718 11.6266 32.6184 15.4605 32.6184 19.7334C32.6184 20.5507 33.2723 21.2134 34.0789 21.2134C34.8856 21.2134 35.5395 20.5507 35.5395 19.7334C35.5395 14.576 33.3063 9.94541 29.7712 6.7837Z" fill="#33CC00"/>
<path d="M14.9693 33.5894C14.1881 33.3856 13.3919 33.8622 13.1908 34.6537C12.9898 35.4453 13.46 36.2522 14.2412 36.4559C15.604 36.8114 17.0313 37 18.5 37C19.9687 37 21.396 36.8114 22.7588 36.4559C23.54 36.2522 24.0102 35.4453 23.8092 34.6537C23.6081 33.8622 22.8119 33.3856 22.0307 33.5894C20.9038 33.8833 19.721 34.04 18.5 34.04C17.279 34.04 16.0962 33.8833 14.9693 33.5894Z" fill="#33CC00"/>
</g>
</svg>
