<svg width="18" height="18" viewBox="0 0 18 18" fill="none" xmlns="http://www.w3.org/2000/svg">
<g id="Vector" opacity="0.5">
<path d="M5.8589 6.20854e-06H12.141C12.3502 -4.54971e-05 12.5106 -8.5104e-05 12.6509 0.0136322C13.6479 0.111164 14.464 0.710622 14.81 1.5181H3.18985C3.53591 0.710622 4.35199 0.111164 5.34903 0.0136322C5.48926 -8.5156e-05 5.64967 -4.54971e-05 5.8589 6.20854e-06Z" fill="white"/>
<path d="M3.87946 2.45081C2.6279 2.45081 1.60167 3.20658 1.25919 4.20922C1.25205 4.23012 1.24521 4.25113 1.23866 4.27224C1.597 4.16373 1.96993 4.09283 2.34745 4.04444C3.31978 3.91978 4.54859 3.91985 5.97602 3.91992L6.08261 3.91993L12.1789 3.91992C13.6063 3.91985 14.8351 3.91978 15.8075 4.04444C16.185 4.09283 16.5579 4.16373 16.9163 4.27224C16.9097 4.25113 16.9029 4.23012 16.8957 4.20922C16.5533 3.20658 15.527 2.45081 14.2755 2.45081H3.87946Z" fill="white"/>
<path fill-rule="evenodd" clip-rule="evenodd" d="M6.00515 4.98784H11.9948C15.0322 4.98784 16.5508 4.98784 17.4039 5.87599C18.257 6.76413 18.0563 8.13629 17.6548 10.8806L17.2742 13.483C16.9594 15.6351 16.802 16.7112 15.9945 17.3556C15.187 18 13.9961 18 11.6142 18H6.38583C4.00393 18 2.81297 18 2.0055 17.3556C1.19803 16.7112 1.04063 15.6351 0.725832 13.483L0.34516 10.8806C-0.0562656 8.13629 -0.256978 6.76413 0.596086 5.87599C1.44915 4.98784 2.96782 4.98784 6.00515 4.98784ZM5.4 14.4001C5.4 14.0273 5.73579 13.7251 6.15 13.7251H11.85C12.2642 13.7251 12.6 14.0273 12.6 14.4001C12.6 14.7729 12.2642 15.0751 11.85 15.0751H6.15C5.73579 15.0751 5.4 14.7729 5.4 14.4001Z" fill="white"/>
</g>
</svg>
