<svg width="32" height="32" viewBox="0 0 32 32" fill="none" xmlns="http://www.w3.org/2000/svg">
<path d="M4 8.69776C4 8.17178 4.43561 7.74538 4.97297 7.74538H11.3572C11.3658 6.62375 11.4874 5.08607 12.6005 4.02159C13.4765 3.18386 14.6774 2.66602 16 2.66602C17.3225 2.66602 18.5235 3.18386 19.3995 4.02159C20.5126 5.08607 20.6341 6.62374 20.6428 7.74538H27.027C27.5644 7.74538 28 8.17178 28 8.69776C28 9.22375 27.5644 9.65014 27.027 9.65014H4.97297C4.43561 9.65014 4 9.22375 4 8.69776Z" fill="white"/>
<path fill-rule="evenodd" clip-rule="evenodd" d="M15.4608 29.3327H16.5392C20.2495 29.3327 22.1046 29.3327 23.3108 28.1514C24.517 26.9702 24.6404 25.0326 24.8872 21.1574L25.2428 15.5735C25.3767 13.4708 25.4437 12.4195 24.8386 11.7533C24.2335 11.0871 23.2116 11.0871 21.1679 11.0871H10.8321C8.78836 11.0871 7.76651 11.0871 7.1614 11.7533C6.5563 12.4195 6.62325 13.4708 6.75717 15.5735L7.11279 21.1574C7.35959 25.0326 7.483 26.9702 8.68919 28.1514C9.89537 29.3327 11.7505 29.3327 15.4608 29.3327ZM13.6617 16.2507C13.6067 15.6722 13.1167 15.2501 12.5672 15.308C12.0176 15.3658 11.6167 15.8817 11.6716 16.4601L12.3383 23.4777C12.3932 24.0561 12.8833 24.4782 13.4328 24.4203C13.9824 24.3625 14.3833 23.8467 14.3284 23.2682L13.6617 16.2507ZM19.4328 15.308C19.9824 15.3658 20.3833 15.8817 20.3284 16.4601L19.6617 23.4777C19.6068 24.0561 19.1167 24.4782 18.5672 24.4203C18.0176 24.3625 17.6167 23.8467 17.6716 23.2682L18.3383 16.2507C18.3933 15.6722 18.8833 15.2501 19.4328 15.308Z" fill="white"/>
</svg>
