<svg width="45" height="56" viewBox="0 0 45 56" fill="none" xmlns="http://www.w3.org/2000/svg">
<g id="Icon" filter="url(#filter0_i_208_657)">
<path d="M5.01969 21.4427L13.9611 10.4849C19.7408 3.40177 22.6306 -0.139792 25.1253 0.757531C27.62 1.65485 27.4041 6.15819 26.9722 15.1649L26.9314 16.0141C26.7757 19.2626 26.6978 20.8868 27.6869 21.9554L27.7393 22.0109C28.7518 23.059 30.4423 23.1401 33.8234 23.3022C39.9077 23.594 42.9498 23.7399 43.8895 25.6344C43.9051 25.6658 43.9201 25.6974 43.9347 25.7292C44.8154 27.6495 42.9397 29.9482 39.1883 34.5456L30.2469 45.5033C24.4671 52.5864 21.5772 56.128 19.0825 55.2307C16.5878 54.3333 16.8038 49.8299 17.2359 40.8232L17.2766 39.9743C17.4324 36.7258 17.5103 35.1015 16.5212 34.0329L16.4688 33.9775C15.4562 32.9293 13.7657 32.8482 10.3847 32.6861C4.30036 32.3943 1.25822 32.2484 0.318565 30.3539C0.303008 30.3225 0.287935 30.2909 0.273354 30.2591C-0.607349 28.3388 1.26833 26.0401 5.01969 21.4427Z" fill="url(#paint0_radial_208_657)"/>
</g>
<defs>
<filter id="filter0_i_208_657" x="0.0585938" y="0.620605" width="44.0918" height="58.7471" filterUnits="userSpaceOnUse" color-interpolation-filters="sRGB">
<feFlood flood-opacity="0" result="BackgroundImageFix"/>
<feBlend mode="normal" in="SourceGraphic" in2="BackgroundImageFix" result="shape"/>
<feColorMatrix in="SourceAlpha" type="matrix" values="0 0 0 0 0 0 0 0 0 0 0 0 0 0 0 0 0 0 127 0" result="hardAlpha"/>
<feOffset dy="4"/>
<feGaussianBlur stdDeviation="2"/>
<feComposite in2="hardAlpha" operator="arithmetic" k2="-1" k3="1"/>
<feColorMatrix type="matrix" values="0 0 0 0 1 0 0 0 0 1 0 0 0 0 1 0 0 0 0.25 0"/>
<feBlend mode="normal" in2="shape" result="effect1_innerShadow_208_657"/>
</filter>
<radialGradient id="paint0_radial_208_657" cx="0" cy="0" r="1" gradientUnits="userSpaceOnUse" gradientTransform="translate(-6.5 3) rotate(58.7004) scale(73.1454 58.5163)">
<stop offset="0.246531" stop-color="white"/>
<stop offset="0.616655" stop-color="#33CC00"/>
<stop offset="0.994792" stop-color="#282828"/>
</radialGradient>
</defs>
</svg>
