<svg width="19" height="18" viewBox="0 0 19 18" fill="none" xmlns="http://www.w3.org/2000/svg">
<g opacity="0.5">
<path d="M6.3589 6.20854e-06H12.641C12.8502 -4.54971e-05 13.0106 -8.5104e-05 13.1509 0.0136322C14.1479 0.111164 14.964 0.710622 15.31 1.5181H3.68985C4.03591 0.710622 4.85199 0.111164 5.84903 0.0136322C5.98926 -8.5156e-05 6.14967 -4.54971e-05 6.3589 6.20854e-06Z" fill="#282828"/>
<path d="M4.37946 2.45081C3.1279 2.45081 2.10167 3.20658 1.75919 4.20922C1.75205 4.23012 1.74521 4.25113 1.73866 4.27224C2.097 4.16373 2.46993 4.09283 2.84745 4.04444C3.81978 3.91978 5.04859 3.91985 6.47602 3.91992L6.58261 3.91993L12.6789 3.91992C14.1063 3.91985 15.3351 3.91978 16.3075 4.04444C16.685 4.09283 17.0579 4.16373 17.4163 4.27224C17.4097 4.25113 17.4029 4.23012 17.3957 4.20922C17.0533 3.20658 16.027 2.45081 14.7755 2.45081H4.37946Z" fill="#282828"/>
<path fill-rule="evenodd" clip-rule="evenodd" d="M6.50515 4.98784H12.4948C15.5322 4.98784 17.0508 4.98784 17.9039 5.87599C18.757 6.76413 18.5563 8.13629 18.1548 10.8806L17.7742 13.483C17.4594 15.6351 17.302 16.7112 16.4945 17.3556C15.687 18 14.4961 18 12.1142 18H6.88583C4.50393 18 3.31297 18 2.5055 17.3556C1.69803 16.7112 1.54063 15.6351 1.22583 13.483L0.84516 10.8806C0.443734 8.13629 0.243022 6.76413 1.09609 5.87599C1.94915 4.98784 3.46782 4.98784 6.50515 4.98784ZM5.9 14.4001C5.9 14.0273 6.23579 13.7251 6.65 13.7251H12.35C12.7642 13.7251 13.1 14.0273 13.1 14.4001C13.1 14.7729 12.7642 15.0751 12.35 15.0751H6.65C6.23579 15.0751 5.9 14.7729 5.9 14.4001Z" fill="#282828"/>
</g>
</svg>
