<svg width="20" height="20" viewBox="0 0 20 20" fill="none" xmlns="http://www.w3.org/2000/svg">
<g id="Vector" opacity="0.5">
<path d="M15.976 0.602141C16.4394 0.342552 16.742 0.174288 16.9825 0.0783723C17.209 -0.0119504 17.3082 -0.00735486 17.3758 0.0102009C17.4425 0.0275431 17.5291 0.0705815 17.6774 0.257025C17.8356 0.45593 18.0105 0.747531 18.2782 1.19747L19.3821 3.0525C19.6499 3.50257 19.8227 3.7951 19.921 4.02715C20.0133 4.24515 20.0063 4.33514 19.9904 4.39301C19.9741 4.45176 19.9326 4.53473 19.7385 4.68003C19.5329 4.83397 19.2316 5.004 18.7681 5.26366L14.8361 7.46618C14.3975 7.71185 14.1138 7.86953 13.889 7.95899C13.6784 8.04282 13.5925 8.03579 13.5381 8.02142C13.4837 8.00704 13.4058 7.97072 13.2658 7.7942C13.1165 7.60582 12.9506 7.32925 12.6952 6.90007L11.5162 4.91881C11.2539 4.47796 11.0851 4.19212 10.989 3.96551C10.8987 3.7528 10.9059 3.66639 10.9206 3.61202C10.9354 3.55766 10.9729 3.47928 11.1589 3.33961C11.3569 3.1908 11.6479 3.02654 12.0984 2.77419L15.976 0.602141Z" fill="#282828"/>
<path d="M6.63784 6.4508L10.0871 4.51869C10.2139 4.78176 10.3907 5.07891 10.5908 5.41514L11.805 7.45545C11.9882 7.76334 12.1517 8.03812 12.3093 8.26273L10.7624 9.12921L14.9384 18.9182C15.1076 19.3148 14.919 19.7717 14.5172 19.9387C14.1153 20.1057 13.6524 19.9196 13.4832 19.523L10.0003 11.3585L6.51732 19.523C6.34812 19.9196 5.88519 20.1057 5.48335 19.9387C5.0815 19.7717 4.8929 19.3148 5.0621 18.9182L8.75944 10.2512C8.357 10.4764 8.09013 10.6231 7.87652 10.7081C7.66592 10.7919 7.57999 10.7849 7.52562 10.7705C7.47124 10.7561 7.39327 10.7198 7.25334 10.5433C7.104 10.3549 6.93814 10.0783 6.68275 9.64916L6.05569 8.59541C5.79336 8.15457 5.62457 7.86873 5.5284 7.64212C5.43814 7.42941 5.4453 7.343 5.46005 7.28863C5.47481 7.23427 5.51238 7.15589 5.6983 7.01622C5.89638 6.86741 6.18734 6.70315 6.63784 6.4508Z" fill="#282828"/>
<path d="M4.62684 8.19597L1.23194 10.0976C0.768391 10.3573 0.467076 10.5273 0.261479 10.6813C0.0674072 10.8266 0.0258625 10.9095 0.00963844 10.9683C-0.00634598 11.0262 -0.0133292 11.1162 0.0790206 11.3342C0.177319 11.5662 0.350072 11.8587 0.617896 12.3088C0.885642 12.7587 1.06048 13.0503 1.21868 13.2492C1.36698 13.4357 1.45364 13.4787 1.52035 13.4961C1.58788 13.5136 1.68707 13.5182 1.91358 13.4279C2.15411 13.332 2.45672 13.1637 2.92014 12.9041L6.29723 11.0124C6.13943 10.7877 5.97589 10.5128 5.79249 10.2046L5.1303 9.09179C4.93035 8.75583 4.75363 8.45889 4.62684 8.19597Z" fill="#282828"/>
</g>
</svg>
