<svg width="70" height="56" viewBox="0 0 70 56" fill="none" xmlns="http://www.w3.org/2000/svg">
<g id="Vector">
<path d="M17.5014 0H42.5014C55.0722 0 61.3576 0 65.2628 3.90524C69.168 7.81049 69.168 14.0959 69.168 26.6667C69.168 39.2375 69.168 45.5228 65.2628 49.4281C61.5984 53.0924 52.9037 53.3185 41.4599 53.3324C40.1943 53.334 39.168 52.3073 39.168 51.0417C39.168 32.0569 23.7778 16.6667 4.79304 16.6667C3.52738 16.6667 2.49821 15.6405 2.50656 14.3749C2.51337 13.3427 2.52913 12.3964 2.56557 12.0264C3.18906 5.69608 8.19745 0.68769 14.5278 0.0642036C15.1797 0 15.9536 0 17.5014 0Z" fill="#282828"/>
<path d="M2.5 20.8333C1.11929 20.8333 0 21.9526 0 23.3333C0 24.714 1.11929 25.8333 2.5 25.8333C17.6878 25.8333 30 38.1455 30 53.3333C30 54.714 31.1193 55.8333 32.5 55.8333C33.8807 55.8333 35 54.714 35 53.3333C35 35.3841 20.4493 20.8333 2.5 20.8333Z" fill="#282828"/>
<path d="M2.5 30.8333C1.11929 30.8333 0 31.9526 0 33.3333C0 34.714 1.11929 35.8333 2.5 35.8333C12.165 35.8333 20 43.6684 20 53.3333C20 54.714 21.1193 55.8333 22.5 55.8333C23.8807 55.8333 25 54.714 25 53.3333C25 40.9069 14.9264 30.8333 2.5 30.8333Z" fill="#282828"/>
<path d="M2.5 40.8333C1.11929 40.8333 0 41.9526 0 43.3333C0 44.714 1.11929 45.8333 2.5 45.8333C6.64214 45.8333 10 49.1912 10 53.3333C10 54.714 11.1193 55.8333 12.5 55.8333C13.8807 55.8333 15 54.714 15 53.3333C15 46.4298 9.40356 40.8333 2.5 40.8333Z" fill="#282828"/>
</g>
</svg>
