<svg width="19" height="15" viewBox="0 0 19 15" fill="none" xmlns="http://www.w3.org/2000/svg">
<g id="Vector">
<path d="M4.60724 0H11.1885C14.4978 0 16.1524 0 17.1805 1.02806C18.2085 2.05611 18.2085 3.71075 18.2085 7.02001C18.2085 10.3293 18.2085 11.9839 17.1805 13.012C16.2158 13.9766 13.9269 14.0361 10.9143 14.0398C10.5812 14.0402 10.311 13.7699 10.311 13.4367C10.311 8.43899 6.25952 4.38751 1.26177 4.38751C0.928586 4.38751 0.657654 4.11738 0.659853 3.7842C0.661647 3.51248 0.665795 3.26337 0.675389 3.16597C0.839522 1.4995 2.15798 0.181035 3.82445 0.0169016C3.99606 0 4.19979 0 4.60724 0Z" fill="white"/>
<path d="M0.658126 5.48438C0.294653 5.48438 0 5.77904 0 6.14251C0 6.50598 0.294653 6.80064 0.658126 6.80064C4.65633 6.80064 7.89751 10.0418 7.89751 14.04C7.89751 14.4035 8.19217 14.6981 8.55564 14.6981C8.91911 14.6981 9.21377 14.4035 9.21377 14.04C9.21377 9.31487 5.38328 5.48438 0.658126 5.48438Z" fill="white"/>
<path d="M0.658126 8.11689C0.294653 8.11689 0 8.41154 0 8.77501C0 9.13849 0.294653 9.43314 0.658126 9.43314C3.20244 9.43314 5.26501 11.4957 5.26501 14.04C5.26501 14.4035 5.55966 14.6981 5.92314 14.6981C6.28661 14.6981 6.58126 14.4035 6.58126 14.04C6.58126 10.7688 3.92938 8.11689 0.658126 8.11689Z" fill="white"/>
<path d="M0.658126 10.7494C0.294653 10.7494 0 11.044 0 11.4075C0 11.771 0.294653 12.0656 0.658126 12.0656C1.74855 12.0656 2.6325 12.9496 2.6325 14.04C2.6325 14.4035 2.92716 14.6981 3.29063 14.6981C3.6541 14.6981 3.94876 14.4035 3.94876 14.04C3.94876 12.2227 2.47549 10.7494 0.658126 10.7494Z" fill="white"/>
</g>
</svg>
