<svg width="32" height="34" viewBox="0 0 32 34" fill="none" xmlns="http://www.w3.org/2000/svg">
<g id="Vector">
<path d="M22 1.18605C22 0.531011 21.4627 0 20.8 0C20.1373 0 19.6 0.531011 19.6 1.18605V32.814C19.6 33.469 20.1373 34 20.8 34C21.4627 34 22 33.469 22 32.814V29.6423C26.2175 29.5986 28.5666 29.3392 30.1255 27.7984C32 25.9457 32 22.9638 32 17C32 11.0362 32 8.05428 30.1255 6.20156C28.5666 4.66076 26.2175 4.40135 22 4.35768V1.18605Z" fill="white"/>
<path fill-rule="evenodd" clip-rule="evenodd" d="M1.87452 27.7984C3.74903 29.6512 6.76602 29.6512 12.8 29.6512H17.6V17V4.34884H12.8C6.76602 4.34884 3.74903 4.34884 1.87452 6.20156C0 8.05428 0 11.0362 0 17C0 22.9638 0 25.9457 1.87452 27.7984ZM17.6 17C17.6 16.1266 16.8837 15.4186 16 15.4186C15.1163 15.4186 14.4 16.1266 14.4 17C14.4 17.8734 15.1163 18.5814 16 18.5814C16.8837 18.5814 17.6 17.8734 17.6 17ZM11.2 17C11.2 17.8734 10.4837 18.5814 9.6 18.5814C8.71634 18.5814 8 17.8734 8 17C8 16.1266 8.71634 15.4186 9.6 15.4186C10.4837 15.4186 11.2 16.1266 11.2 17Z" fill="white"/>
</g>
</svg>
