<svg width="30" height="30" viewBox="0 0 30 30" fill="none" xmlns="http://www.w3.org/2000/svg">
<path id="Vector" opacity="0.5" fill-rule="evenodd" clip-rule="evenodd" d="M2.1967 2.1967C0 4.3934 0 7.92893 0 15C0 22.0711 0 25.6066 2.1967 27.8033C4.3934 30 7.92893 30 15 30C22.0711 30 25.6066 30 27.8033 27.8033C30 25.6066 30 22.0711 30 15C30 7.92893 30 4.3934 27.8033 2.1967C25.6066 0 22.0711 0 15 0C7.92893 0 4.3934 0 2.1967 2.1967ZM12.8147 8.27586C13.2432 7.82594 13.2258 7.11384 12.7759 6.68535C12.3259 6.25685 11.6138 6.27422 11.1853 6.72414L7.71429 10.3688L6.81466 9.42414C6.38616 8.97422 5.67406 8.95685 5.22414 9.38535C4.77422 9.81384 4.75685 10.5259 5.18535 10.9759L6.89963 12.7759C7.11197 12.9988 7.4064 13.125 7.71429 13.125C8.02217 13.125 8.31661 12.9988 8.52894 12.7759L12.8147 8.27586ZM16.5 9.375C15.8787 9.375 15.375 9.87868 15.375 10.5C15.375 11.1213 15.8787 11.625 16.5 11.625H24C24.6213 11.625 25.125 11.1213 25.125 10.5C25.125 9.87868 24.6213 9.375 24 9.375H16.5ZM12.8147 18.7759C13.2432 18.3259 13.2258 17.6138 12.7759 17.1853C12.3259 16.7569 11.6138 16.7742 11.1853 17.2241L7.71429 20.8688L6.81466 19.9241C6.38616 19.4742 5.67406 19.4569 5.22414 19.8853C4.77422 20.3138 4.75685 21.0259 5.18535 21.4759L6.89963 23.2759C7.11197 23.4988 7.4064 23.625 7.71429 23.625C8.02217 23.625 8.31661 23.4988 8.52894 23.2759L12.8147 18.7759ZM16.5 19.875C15.8787 19.875 15.375 20.3787 15.375 21C15.375 21.6213 15.8787 22.125 16.5 22.125H24C24.6213 22.125 25.125 21.6213 25.125 21C25.125 20.3787 24.6213 19.875 24 19.875H16.5Z" fill="white"/>
</svg>
