<svg width="30" height="30" viewBox="0 0 30 30" fill="none" xmlns="http://www.w3.org/2000/svg">
<path id="Vector" opacity="0.5" fill-rule="evenodd" clip-rule="evenodd" d="M2.1967 2.1967C0 4.3934 0 7.92893 0 15C0 22.0711 0 25.6066 2.1967 27.8033C4.3934 30 7.92893 30 15 30C22.0711 30 25.6066 30 27.8033 27.8033C30 25.6066 30 22.0711 30 15C30 7.92893 30 4.3934 27.8033 2.1967C25.6066 0 22.0711 0 15 0C7.92893 0 4.3934 0 2.1967 2.1967ZM23.3643 12.7202C23.762 12.2429 23.6975 11.5335 23.2202 11.1358C22.7429 10.738 22.0335 10.8025 21.6357 11.2798L18.9404 14.5142C18.3842 15.1816 18.0427 15.5873 17.7613 15.8413C17.6308 15.9592 17.5534 16.0061 17.5163 16.0241C17.5088 16.0277 17.5034 16.0299 17.5 16.0312C17.5 16.0312 17.4936 16.0287 17.4885 16.0264L17.4837 16.0241C17.4466 16.0061 17.3692 15.9592 17.2387 15.8413C16.9573 15.5873 16.6158 15.1816 16.0596 14.5142L15.621 13.9879C15.1283 13.3965 14.6841 12.8634 14.2692 12.4887C13.8178 12.0811 13.2492 11.7181 12.5 11.7181C11.7508 11.7181 11.1822 12.0811 10.7308 12.4887C10.3159 12.8634 9.8717 13.3965 9.379 13.9879L6.63575 17.2798C6.23799 17.7571 6.30248 18.4665 6.77979 18.8643C7.2571 19.262 7.96649 19.1975 8.36425 18.7202L11.0596 15.4858C11.6158 14.8184 11.9573 14.4127 12.2387 14.1587C12.3692 14.0408 12.4466 13.9939 12.4837 13.9759C12.4877 13.974 12.491 13.9725 12.4938 13.9713L12.5 13.9688C12.5034 13.9701 12.5088 13.9723 12.5163 13.9759C12.5534 13.9939 12.6308 14.0408 12.7613 14.1587C13.0427 14.4127 13.3842 14.8184 13.9404 15.4858L14.379 16.0121C14.8717 16.6035 15.3159 17.1366 15.7308 17.5113C16.1822 17.9189 16.7508 18.2819 17.5 18.2819C18.2492 18.2819 18.8178 17.9189 19.2692 17.5113C19.6841 17.1366 20.1283 16.6035 20.621 16.0121L23.3643 12.7202Z" fill="white"/>
</svg>
